<svg width="101" height="25" viewBox="0 0 101 25" fill="none" xmlns="http://www.w3.org/2000/svg">
<path d="M34.4074 7.19556L31.009 17.0549H28.9543L33.2355 5.67993H34.548L34.4074 7.19556ZM37.2512 17.0549L33.8449 7.19556L33.6965 5.67993H35.0168L39.3137 17.0549H37.2512ZM37.0871 12.8362V14.3909H30.8996V12.8362H37.0871ZM42.2496 10.2268V20.3049H40.3668V8.60181H42.1012L42.2496 10.2268ZM47.7574 12.7502V12.9143C47.7574 13.5289 47.6845 14.0992 47.5387 14.6252C47.398 15.1461 47.1871 15.6018 46.9059 15.9924C46.6298 16.3778 46.2887 16.6773 45.8824 16.8909C45.4762 17.1044 45.0074 17.2112 44.4762 17.2112C43.9501 17.2112 43.4892 17.1148 43.0934 16.9221C42.7027 16.7242 42.372 16.4456 42.1012 16.0862C41.8303 15.7268 41.6116 15.3049 41.4449 14.8206C41.2835 14.331 41.1689 13.7945 41.1012 13.2112V12.5784C41.1689 11.9586 41.2835 11.3961 41.4449 10.8909C41.6116 10.3857 41.8303 9.95076 42.1012 9.58618C42.372 9.2216 42.7027 8.94035 43.0934 8.74243C43.484 8.54451 43.9397 8.44556 44.4605 8.44556C44.9918 8.44556 45.4632 8.54972 45.8746 8.75806C46.2861 8.96118 46.6324 9.25285 46.9137 9.63306C47.1949 10.0081 47.4059 10.4612 47.5465 10.9924C47.6871 11.5185 47.7574 12.1044 47.7574 12.7502ZM45.8746 12.9143V12.7502C45.8746 12.3596 45.8382 11.9976 45.7652 11.6643C45.6923 11.3258 45.5777 11.0289 45.4215 10.7737C45.2652 10.5185 45.0647 10.3206 44.8199 10.1799C44.5803 10.0341 44.2913 9.96118 43.9527 9.96118C43.6194 9.96118 43.3329 10.0185 43.0934 10.1331C42.8538 10.2424 42.6533 10.3961 42.4918 10.594C42.3303 10.7919 42.2053 11.0237 42.1168 11.2893C42.0283 11.5497 41.9658 11.8336 41.9293 12.1409V13.6565C41.9918 14.0315 42.0986 14.3752 42.2496 14.6877C42.4007 15.0002 42.6142 15.2502 42.8902 15.4377C43.1715 15.62 43.5309 15.7112 43.9684 15.7112C44.3069 15.7112 44.596 15.6383 44.8355 15.4924C45.0751 15.3466 45.2704 15.1461 45.4215 14.8909C45.5777 14.6305 45.6923 14.331 45.7652 13.9924C45.8382 13.6539 45.8746 13.2945 45.8746 12.9143ZM51.3496 10.2268V20.3049H49.4668V8.60181H51.2012L51.3496 10.2268ZM56.8574 12.7502V12.9143C56.8574 13.5289 56.7845 14.0992 56.6387 14.6252C56.498 15.1461 56.2871 15.6018 56.0059 15.9924C55.7298 16.3778 55.3887 16.6773 54.9824 16.8909C54.5762 17.1044 54.1074 17.2112 53.5762 17.2112C53.0501 17.2112 52.5892 17.1148 52.1934 16.9221C51.8027 16.7242 51.472 16.4456 51.2012 16.0862C50.9303 15.7268 50.7116 15.3049 50.5449 14.8206C50.3835 14.331 50.2689 13.7945 50.2012 13.2112V12.5784C50.2689 11.9586 50.3835 11.3961 50.5449 10.8909C50.7116 10.3857 50.9303 9.95076 51.2012 9.58618C51.472 9.2216 51.8027 8.94035 52.1934 8.74243C52.584 8.54451 53.0397 8.44556 53.5605 8.44556C54.0918 8.44556 54.5632 8.54972 54.9746 8.75806C55.3861 8.96118 55.7324 9.25285 56.0137 9.63306C56.2949 10.0081 56.5059 10.4612 56.6465 10.9924C56.7871 11.5185 56.8574 12.1044 56.8574 12.7502ZM54.9746 12.9143V12.7502C54.9746 12.3596 54.9382 11.9976 54.8652 11.6643C54.7923 11.3258 54.6777 11.0289 54.5215 10.7737C54.3652 10.5185 54.1647 10.3206 53.9199 10.1799C53.6803 10.0341 53.3913 9.96118 53.0527 9.96118C52.7194 9.96118 52.4329 10.0185 52.1934 10.1331C51.9538 10.2424 51.7533 10.3961 51.5918 10.594C51.4303 10.7919 51.3053 11.0237 51.2168 11.2893C51.1283 11.5497 51.0658 11.8336 51.0293 12.1409V13.6565C51.0918 14.0315 51.1986 14.3752 51.3496 14.6877C51.5007 15.0002 51.7142 15.2502 51.9902 15.4377C52.2715 15.62 52.6309 15.7112 53.0684 15.7112C53.4069 15.7112 53.696 15.6383 53.9355 15.4924C54.1751 15.3466 54.3704 15.1461 54.5215 14.8909C54.6777 14.6305 54.7923 14.331 54.8652 13.9924C54.9382 13.6539 54.9746 13.2945 54.9746 12.9143ZM68.8152 14.1252C68.8152 13.8909 68.7788 13.6825 68.7059 13.5002C68.6382 13.318 68.5158 13.1513 68.3387 13.0002C68.1616 12.8492 67.9116 12.7034 67.5887 12.5627C67.271 12.4169 66.8647 12.2685 66.3699 12.1174C65.8283 11.9508 65.3283 11.7659 64.8699 11.5627C64.4168 11.3544 64.021 11.1148 63.6824 10.844C63.3439 10.568 63.0809 10.2528 62.8934 9.89868C62.7059 9.53931 62.6121 9.12524 62.6121 8.65649C62.6121 8.19295 62.7085 7.77108 62.9012 7.39087C63.0991 7.01066 63.3777 6.68254 63.7371 6.40649C64.1017 6.12524 64.5314 5.9091 65.0262 5.75806C65.521 5.60181 66.0678 5.52368 66.6668 5.52368C67.5105 5.52368 68.2371 5.67993 68.8465 5.99243C69.4611 6.30493 69.9324 6.7242 70.2605 7.25024C70.5939 7.77629 70.7605 8.35701 70.7605 8.99243H68.8152C68.8152 8.61743 68.7345 8.2867 68.573 8.00024C68.4168 7.70858 68.1772 7.47941 67.8543 7.31274C67.5366 7.14608 67.1329 7.06274 66.6434 7.06274C66.1798 7.06274 65.7944 7.13306 65.4871 7.27368C65.1798 7.41431 64.9507 7.60441 64.7996 7.84399C64.6486 8.08358 64.573 8.35441 64.573 8.65649C64.573 8.87004 64.6225 9.06535 64.7215 9.24243C64.8204 9.41431 64.9715 9.57576 65.1746 9.72681C65.3777 9.87264 65.6329 10.0107 65.9402 10.1409C66.2475 10.2711 66.6095 10.3961 67.0262 10.5159C67.6564 10.7034 68.2059 10.9117 68.6746 11.1409C69.1434 11.3648 69.534 11.62 69.8465 11.9065C70.159 12.193 70.3934 12.5185 70.5496 12.8831C70.7059 13.2424 70.784 13.6513 70.784 14.1096C70.784 14.5888 70.6876 15.0211 70.4949 15.4065C70.3022 15.7867 70.0262 16.1122 69.6668 16.3831C69.3126 16.6487 68.8855 16.8544 68.3855 17.0002C67.8908 17.1409 67.3387 17.2112 66.7293 17.2112C66.1824 17.2112 65.6434 17.1383 65.1121 16.9924C64.5861 16.8466 64.1069 16.6252 63.6746 16.3284C63.2423 16.0263 62.8986 15.6513 62.6434 15.2034C62.3882 14.7502 62.2605 14.2216 62.2605 13.6174H64.2215C64.2215 13.9872 64.284 14.3023 64.409 14.5627C64.5392 14.8232 64.7189 15.0367 64.948 15.2034C65.1772 15.3648 65.4428 15.4846 65.7449 15.5627C66.0522 15.6409 66.3803 15.6799 66.7293 15.6799C67.1876 15.6799 67.5704 15.6148 67.8777 15.4846C68.1902 15.3544 68.4246 15.1721 68.5809 14.9377C68.7371 14.7034 68.8152 14.4325 68.8152 14.1252ZM76.3059 8.60181V9.97681H71.5402V8.60181H76.3059ZM72.9152 6.53149H74.798V14.719C74.798 14.9794 74.8345 15.1799 74.9074 15.3206C74.9855 15.456 75.0923 15.5471 75.2277 15.594C75.3632 15.6409 75.522 15.6643 75.7043 15.6643C75.8345 15.6643 75.9595 15.6565 76.0793 15.6409C76.1991 15.6252 76.2954 15.6096 76.3684 15.594L76.3762 17.0315C76.2199 17.0784 76.0376 17.12 75.8293 17.1565C75.6262 17.193 75.3918 17.2112 75.1262 17.2112C74.6939 17.2112 74.3111 17.1357 73.9777 16.9846C73.6444 16.8284 73.384 16.5758 73.1965 16.2268C73.009 15.8778 72.9152 15.4143 72.9152 14.8362V6.53149ZM77.3121 12.9221V12.7424C77.3121 12.1331 77.4006 11.568 77.5777 11.0471C77.7548 10.5211 78.01 10.0653 78.3434 9.67993C78.6819 9.28931 79.0934 8.98722 79.5777 8.77368C80.0673 8.55493 80.6194 8.44556 81.234 8.44556C81.8538 8.44556 82.4059 8.55493 82.8902 8.77368C83.3798 8.98722 83.7939 9.28931 84.1324 9.67993C84.471 10.0653 84.7288 10.5211 84.9059 11.0471C85.0829 11.568 85.1715 12.1331 85.1715 12.7424V12.9221C85.1715 13.5315 85.0829 14.0966 84.9059 14.6174C84.7288 15.1383 84.471 15.594 84.1324 15.9846C83.7939 16.37 83.3824 16.6721 82.898 16.8909C82.4137 17.1044 81.8642 17.2112 81.2496 17.2112C80.6298 17.2112 80.0751 17.1044 79.5855 16.8909C79.1012 16.6721 78.6897 16.37 78.3512 15.9846C78.0126 15.594 77.7548 15.1383 77.5777 14.6174C77.4006 14.0966 77.3121 13.5315 77.3121 12.9221ZM79.1949 12.7424V12.9221C79.1949 13.3023 79.234 13.6617 79.3121 14.0002C79.3902 14.3388 79.5126 14.6357 79.6793 14.8909C79.846 15.1461 80.0595 15.3466 80.3199 15.4924C80.5803 15.6383 80.8902 15.7112 81.2496 15.7112C81.5986 15.7112 81.9006 15.6383 82.1559 15.4924C82.4163 15.3466 82.6298 15.1461 82.7965 14.8909C82.9631 14.6357 83.0855 14.3388 83.1637 14.0002C83.247 13.6617 83.2887 13.3023 83.2887 12.9221V12.7424C83.2887 12.3674 83.247 12.0133 83.1637 11.6799C83.0855 11.3414 82.9605 11.0419 82.7887 10.7815C82.622 10.5211 82.4085 10.318 82.148 10.1721C81.8928 10.0211 81.5881 9.94556 81.234 9.94556C80.8798 9.94556 80.5725 10.0211 80.3121 10.1721C80.0569 10.318 79.846 10.5211 79.6793 10.7815C79.5126 11.0419 79.3902 11.3414 79.3121 11.6799C79.234 12.0133 79.1949 12.3674 79.1949 12.7424ZM88.7402 10.2112V17.0549H86.8574V8.60181H88.6543L88.7402 10.2112ZM91.3262 8.54712L91.3105 10.2971C91.196 10.2763 91.071 10.2607 90.9355 10.2502C90.8053 10.2398 90.6751 10.2346 90.5449 10.2346C90.222 10.2346 89.9382 10.2815 89.6934 10.3752C89.4486 10.4638 89.2428 10.594 89.0762 10.7659C88.9147 10.9325 88.7897 11.1357 88.7012 11.3752C88.6126 11.6148 88.5605 11.8831 88.5449 12.1799L88.1152 12.2112C88.1152 11.6799 88.1673 11.1877 88.2715 10.7346C88.3757 10.2815 88.5319 9.88306 88.7402 9.53931C88.9538 9.19556 89.2194 8.92733 89.5371 8.73462C89.86 8.54191 90.2324 8.44556 90.6543 8.44556C90.7689 8.44556 90.8913 8.45597 91.0215 8.47681C91.1569 8.49764 91.2585 8.52108 91.3262 8.54712ZM96.1762 17.2112C95.5512 17.2112 94.9861 17.1096 94.4809 16.9065C93.9809 16.6982 93.5538 16.4091 93.1996 16.0393C92.8506 15.6695 92.5824 15.2346 92.3949 14.7346C92.2074 14.2346 92.1137 13.6956 92.1137 13.1174V12.8049C92.1137 12.1435 92.21 11.5445 92.4027 11.0081C92.5954 10.4716 92.8637 10.0133 93.2074 9.63306C93.5512 9.24764 93.9574 8.95337 94.4262 8.75024C94.8949 8.54712 95.4027 8.44556 95.9496 8.44556C96.5538 8.44556 97.0824 8.54712 97.5355 8.75024C97.9887 8.95337 98.3637 9.23983 98.6605 9.60962C98.9626 9.9742 99.1866 10.4091 99.3324 10.9143C99.4835 11.4195 99.559 11.9768 99.559 12.5862V13.3909H93.0277V12.0393H97.6996V11.8909C97.6892 11.5523 97.6215 11.2346 97.4965 10.9377C97.3767 10.6409 97.1918 10.4013 96.9418 10.219C96.6918 10.0367 96.3585 9.94556 95.9418 9.94556C95.6293 9.94556 95.3506 10.0133 95.1059 10.1487C94.8663 10.2789 94.6658 10.469 94.5043 10.719C94.3428 10.969 94.2178 11.2711 94.1293 11.6252C94.046 11.9742 94.0043 12.3674 94.0043 12.8049V13.1174C94.0043 13.4872 94.0538 13.831 94.1527 14.1487C94.2569 14.4612 94.4079 14.7346 94.6059 14.969C94.8038 15.2034 95.0434 15.3883 95.3246 15.5237C95.6059 15.6539 95.9262 15.719 96.2855 15.719C96.7387 15.719 97.1423 15.6278 97.4965 15.4456C97.8506 15.2633 98.1579 15.0055 98.4184 14.6721L99.4105 15.6331C99.2283 15.8987 98.9913 16.1539 98.6996 16.3987C98.4079 16.6383 98.0512 16.8336 97.6293 16.9846C97.2126 17.1357 96.7283 17.2112 96.1762 17.2112Z" fill="#07232C"/>
<path d="M4.64423 18.2487L4.64669 18.2494L3.75368 19.7962C3.42773 20.3607 2.70574 20.5542 2.14115 20.2282C1.57658 19.9023 1.38313 19.1803 1.70908 18.6157L2.36694 17.4763L2.43006 17.3669C2.54281 17.2048 2.82105 16.9252 3.37761 16.9778C3.37761 16.9778 4.6873 17.1199 4.78206 17.8006C4.78208 17.8006 4.79501 18.0246 4.64423 18.2487ZM17.3102 14.2981H14.5254C14.3358 14.2854 14.253 14.2177 14.2205 14.1783L14.2184 14.1747L11.2374 9.01152L11.2336 9.01411L11.0548 8.75777C10.7618 8.30973 10.2965 9.45569 10.2965 9.45569C9.74105 10.7326 10.3754 12.1844 10.5966 12.6232L14.7369 19.7945C15.0629 20.3591 15.7849 20.5526 16.3494 20.2266C16.914 19.9007 17.1075 19.1787 16.7815 18.6141L15.7462 16.8209C15.7261 16.7774 15.6912 16.6594 15.9035 16.659H17.3102C17.9621 16.659 18.4906 16.1305 18.4906 15.4785C18.4906 14.8266 17.9621 14.2981 17.3102 14.2981ZM11.9013 15.9029C11.9013 15.9029 12.05 16.6589 11.4748 16.6589H10.8997L1.18044 16.659C0.528508 16.659 0 16.1305 0 15.4785C0 14.8266 0.528508 14.2981 1.18044 14.2981H3.82702C4.2543 14.2733 4.3556 14.0267 4.3556 14.0267L4.35793 14.0279L7.81259 8.04418L7.81156 8.04397C7.87455 7.92837 7.82211 7.81916 7.81298 7.80187L6.67208 5.82579C6.3461 5.2612 6.53956 4.53924 7.10415 4.21328C7.66874 3.8873 8.39068 4.08076 8.71666 4.64535L9.24579 5.56185L9.77399 4.64698C10.0999 4.08238 10.8219 3.88893 11.3865 4.21491C11.9511 4.54089 12.1445 5.26286 11.8186 5.82742L7.0113 14.1538C6.99029 14.2045 6.98385 14.2841 7.14023 14.2981H10.0137L10.0144 14.3261C10.0144 14.3261 11.6752 14.3519 11.9013 15.9029Z" fill="#1BB2F9"/>
</svg>
