<svg width="1366" height="465" viewBox="0 0 1366 465" fill="none" xmlns="http://www.w3.org/2000/svg">
<g filter="url(#filter0_d_142_954)">
<rect x="50" y="50.0273" width="1266" height="364" rx="30" fill="#F75936"/>
</g>
<g opacity="0.7">
<mask id="mask0_142_954" style="mask-type:alpha" maskUnits="userSpaceOnUse" x="50" y="50" width="1266" height="365">
<rect x="50" y="50.0273" width="1266" height="364" rx="30" fill="#D9D9D9"/>
</mask>
<g mask="url(#mask0_142_954)">
<path d="M64.1487 431.013C68.2824 340.004 126.45 273.519 173.103 220.036L176.351 216.195C181.666 210.581 194.362 195.215 193.181 176.895C192.591 165.667 186.98 155.62 176.646 146.756C170.445 141.437 164.835 136.414 159.225 131.981C135.013 111.297 116.116 94.7502 86.5891 74.3617C75.6641 66.9745 65.0345 59.8828 54.7001 53.0867V54.2686C65.0345 60.7693 75.3689 67.861 85.9985 75.2481C115.525 95.6367 134.718 112.184 158.635 132.868C163.949 137.596 169.855 142.619 176.055 147.642C186.095 156.211 191.705 166.258 192.295 177.191C193.181 195.215 181.075 210.285 175.465 215.899L172.217 219.741C125.565 273.224 67.3966 339.708 62.9676 431.309C62.377 441.06 58.8338 446.97 54.4048 449.038V450.22C59.4244 447.856 63.5581 441.946 64.1487 431.013Z" fill="url(#paint0_radial_142_954)"/>
<path d="M84.8176 431.899C88.6561 347.981 144.167 284.452 188.752 233.628L192 229.787C201.449 219.149 208.83 209.694 214.441 201.716C221.232 191.669 234.224 173.349 203.811 143.8C171.036 112.183 135.604 82.9301 98.4 57.2228C83.3413 46.5853 68.5778 37.1298 54.7002 28.8562V30.0381C68.5778 38.6072 82.7507 47.7673 97.8094 58.1093C135.013 83.8166 170.446 113.07 203.22 144.687C233.042 173.644 220.641 191.669 213.85 201.42C208.24 209.398 200.858 218.854 191.41 229.491L188.162 233.333C143.281 284.156 87.7703 347.686 83.9318 431.899C82.1602 470.903 75.0737 493.656 62.0819 503.407C59.4245 505.475 57.0623 506.362 54.7002 506.657V507.543C57.0623 507.248 59.7198 506.362 62.6724 503.998C75.9595 494.247 83.046 471.199 84.8176 431.899Z" fill="url(#paint1_radial_142_954)"/>
<path d="M62.3772 298.042C70.3494 284.155 80.6838 271.449 90.723 259.038C105.191 241.309 119.955 222.989 127.927 200.532C142.1 160.937 114.344 142.617 85.1129 123.115C82.4555 121.342 79.798 119.569 76.8453 117.796C72.121 114.546 67.3967 111.295 62.9677 108.34C60.9008 106.863 57.9482 104.795 54.7002 102.431V103.613C57.9482 105.977 60.3103 107.749 62.3772 109.227C66.8062 112.477 71.5305 115.432 76.2548 118.682C78.9122 120.455 81.5696 122.228 84.5223 124.001C113.459 143.208 140.919 161.528 127.041 200.532C119.069 222.989 104.305 241.309 89.8372 258.743C79.798 271.153 69.4636 283.859 61.4914 297.747C59.1292 301.884 56.7671 307.498 54.7002 313.112V315.476C54.9955 314.885 55.2907 314.294 55.2907 313.703C57.6529 307.793 60.015 302.475 62.3772 298.042Z" fill="url(#paint2_radial_142_954)"/>
<path d="M134.423 233.036C135.604 231.559 137.08 229.786 138.556 228.309C157.454 205.852 177.237 182.804 154.796 155.028C137.375 133.753 111.392 116.024 88.3608 100.363C83.6365 97.1129 79.2075 94.158 74.7785 90.9077C71.8258 88.8393 67.692 85.8844 62.9677 82.3386C60.6056 80.8612 57.6529 78.7928 54.7002 76.7244V77.9063C57.3576 79.9747 60.015 81.7476 62.6724 83.5206C67.3967 87.0664 71.2352 90.0212 74.4832 92.0896C78.9122 95.0445 83.3413 98.2948 88.0656 101.545C111.097 117.206 137.08 134.64 154.206 155.915C176.056 183.099 156.568 205.852 137.966 228.013C136.49 229.491 135.309 231.264 133.832 232.741C117.297 252.539 96.3331 278.837 79.5028 308.09C69.4636 325.819 60.9008 344.73 54.7002 363.937V366.892C61.1961 346.799 69.7589 327.296 80.3886 308.681C96.9236 279.132 117.888 252.834 134.423 233.036Z" fill="url(#paint3_radial_142_954)"/>
<path d="M334.024 277.359C332.548 279.723 331.072 282.087 329.89 283.86C314.832 304.839 297.411 323.751 277.333 344.139C274.675 346.798 272.018 349.753 269.065 352.413C252.53 368.96 235.7 386.098 225.365 406.487C221.527 414.465 220.346 420.374 221.822 424.216C222.708 425.989 223.889 427.171 225.661 427.466C226.546 427.762 227.137 427.762 228.023 427.762C231.566 427.762 236.586 425.989 241.9 422.738C252.825 416.238 263.16 407.964 273.199 399.986C281.466 393.485 290.029 386.689 298.592 381.075C334.024 357.731 357.35 342.071 368.275 298.339C370.638 289.179 371.819 268.495 364.732 259.63C362.37 256.675 359.122 255.198 355.284 255.198C347.016 255.789 339.634 268.199 334.024 277.359ZM356.76 256.38C360.008 256.38 362.665 257.857 364.732 260.517C371.523 269.381 370.342 289.474 367.98 298.339C357.055 341.775 334.024 357.14 298.592 380.484C289.734 386.394 281.171 392.894 273.199 399.395C263.16 407.373 252.825 415.351 241.9 422.147C235.405 426.284 229.499 427.762 226.251 426.875C224.775 426.284 223.594 425.398 223.003 423.92C221.527 420.374 222.708 414.465 226.546 406.782C236.586 386.689 253.711 369.551 269.951 353.004C272.608 350.049 275.561 347.389 278.218 344.73C298.001 324.342 315.718 305.43 330.776 284.451C331.957 282.678 333.434 280.314 334.91 277.95C340.225 269.086 347.607 256.971 356.169 256.675C356.465 256.38 356.465 256.38 356.76 256.38Z" fill="url(#paint4_radial_142_954)"/>
<path d="M105.782 433.079C109.325 356.548 162.178 296.269 204.401 247.514L207.649 243.672C258.14 186.053 256.073 165.664 232.452 142.321C206.468 116.613 165.721 78.2002 110.211 39.787C91.3135 26.7856 72.7116 14.6707 54.7002 4.0332V5.80614C72.4163 16.4436 90.723 28.2631 109.325 40.969C164.54 79.3821 205.287 117.795 231.271 143.207C254.302 165.96 256.073 185.462 206.468 242.49L203.22 246.332C160.702 295.087 107.849 355.662 104.305 432.783C100.762 505.177 73.5974 526.453 54.7002 532.362V533.84C74.1879 528.225 102.238 506.655 105.782 433.079Z" fill="url(#paint5_radial_142_954)"/>
<path d="M352.035 228.012C339.043 231.263 327.823 249.287 318.67 263.471C315.422 268.494 312.469 273.222 309.812 276.767C295.048 295.679 278.513 312.817 262.569 329.364C258.435 333.796 253.12 338.524 247.51 343.547C230.975 358.913 210.602 377.824 204.401 395.257C199.086 410.032 202.334 423.92 205.287 437.216C207.649 448.149 210.306 459.673 208.239 471.788C207.058 479.175 202.629 486.563 197.905 494.245C192.295 503.405 186.39 512.861 186.094 523.203C186.094 526.749 186.39 529.999 187.571 533.545C191.409 544.478 195.543 549.501 200.267 549.501C204.991 549.501 210.306 544.478 217.983 532.363C225.365 520.839 228.318 507.247 230.975 494.245C233.928 481.244 236.585 467.651 244.262 455.832C258.435 433.375 283.533 417.123 305.383 402.349C307.154 401.167 309.221 399.985 310.993 398.803C347.606 374.573 376.543 355.367 389.239 303.657C392.782 290.064 391.897 255.197 377.724 237.468C371.228 228.603 362.37 225.648 352.035 228.012ZM376.838 238.354C389.239 254.311 391.897 287.996 388.058 303.361C375.361 354.48 346.72 373.391 310.402 397.621C308.631 398.803 306.859 399.985 304.792 401.167C282.647 415.646 257.549 432.193 243.081 454.946C235.404 466.765 232.451 480.653 229.794 493.95C227.137 506.951 224.184 520.248 216.802 531.772C211.783 540.046 205.582 548.319 200.267 548.319C196.133 548.319 192.59 543.296 188.752 533.249C187.571 529.999 186.98 527.044 187.275 523.498C187.571 513.747 193.476 504.292 198.791 495.132C203.515 487.449 208.239 480.062 209.42 472.379C211.487 460.264 208.83 448.74 206.468 437.512C203.515 423.624 200.562 410.623 205.582 396.144C211.783 379.006 232.156 360.095 248.396 345.025C254.006 340.001 259.321 334.978 263.455 330.546C279.399 313.999 295.934 296.861 310.698 277.949C313.355 274.404 316.308 269.676 319.556 264.653C328.414 250.469 339.634 232.74 352.035 229.785C354.397 229.194 356.464 228.899 358.531 228.899C365.913 228.603 371.818 231.854 376.838 238.354Z" fill="url(#paint6_radial_142_954)"/>
<path d="M365.619 163.893C358.532 153.846 352.331 152.369 346.131 151.187C341.702 150.3 336.977 149.118 331.663 145.277L331.367 144.686C316.309 127.843 265.818 72.8831 248.692 72.8831C246.625 72.8831 245.149 73.474 243.968 74.9514C241.606 77.9063 241.901 83.8161 244.263 93.2716C245.739 98.8858 260.208 106.568 275.266 114.547C287.963 121.343 300.955 128.434 305.384 133.458C309.222 138.185 314.537 144.686 314.242 147.05C314.242 147.641 313.356 147.937 312.175 148.527C309.517 149.709 305.679 151.778 307.746 161.233C309.222 167.734 313.061 173.939 317.194 180.144C320.738 186.054 324.281 191.373 325.462 196.692C329.3 211.171 305.384 237.764 289.734 255.493C284.42 261.403 279.991 266.426 277.333 270.268C265.818 285.633 251.645 299.521 237.767 313.113C210.898 339.707 183.142 367.187 173.399 405.009C158.045 461.743 155.092 511.68 163.95 553.639C168.674 576.096 184.914 607.122 200.859 607.122C210.602 607.122 217.984 595.302 222.118 571.959C238.653 482.131 283.829 452.287 327.234 423.329C365.914 397.622 402.527 373.392 418.176 310.749C424.082 287.11 414.928 250.47 403.118 230.377C397.803 221.513 391.307 216.194 384.811 211.466C379.201 207.034 373.886 203.192 369.752 196.692C366.8 191.964 367.39 186.645 367.981 181.031C368.571 175.121 369.162 169.211 365.619 163.893ZM367.981 197.578C372.41 204.374 377.725 208.511 383.63 212.943C389.831 217.671 396.326 222.694 401.346 231.264C412.862 251.061 422.015 286.815 416.109 310.158C400.46 372.21 364.437 396.145 326.053 421.557C282.057 450.81 236.586 480.949 220.051 571.663C215.917 593.529 209.421 605.053 200.859 605.053C187.571 605.053 171.036 576.982 166.017 553.048C157.159 511.384 160.111 461.743 174.58 405.6C184.324 368.369 211.784 341.184 238.358 314.591C252.235 300.998 266.703 286.815 278.219 271.45C280.876 267.608 285.601 262.585 290.62 256.971C307.746 237.764 330.777 211.761 326.938 196.101C325.462 190.486 321.919 184.872 318.376 178.963C314.537 173.053 310.699 166.552 309.222 160.642C307.451 152.96 310.108 151.482 312.765 150.3C314.242 149.709 315.423 148.823 315.718 147.346C316.309 145.277 314.832 141.731 306.565 131.98C301.84 126.366 288.553 119.274 275.857 112.478C262.57 105.387 247.216 97.1129 246.035 92.3851C243.082 81.7477 243.968 77.6108 245.444 75.8379C246.035 74.9515 247.216 74.656 248.397 74.656C261.389 74.656 298.888 111.296 329.596 145.868C329.891 146.164 330.186 146.459 330.186 146.459C336.092 150.891 341.111 151.778 345.54 152.96C351.741 154.437 357.351 155.619 363.847 165.075C367.095 169.507 366.504 175.121 365.914 180.735C365.323 186.645 364.733 192.555 367.981 197.578Z" fill="url(#paint7_radial_142_954)"/>
<path d="M54.7001 -27.8774C154.206 28.5605 261.683 118.093 281.171 162.711C292.982 189.6 264.341 221.513 228.318 261.994C187.276 308.09 136.489 365.414 133.242 433.967C129.403 517.885 87.7701 552.162 54.4048 562.504V564.572C88.3607 554.23 131.175 519.363 135.013 433.967C138.261 366.005 188.752 308.977 229.499 263.176C266.112 222.104 294.753 189.6 282.647 161.825C263.455 117.206 155.091 26.492 54.7001 -29.9458V-27.8774Z" fill="url(#paint8_radial_142_954)"/>
<path d="M82.1602 183.69C80.6838 174.234 74.1879 165.665 62.0819 157.687C59.7198 155.914 57.0623 154.436 54.7002 152.664V153.846C57.0623 155.323 59.4245 157.096 61.7866 158.573C73.5974 166.551 80.0933 174.825 81.5696 183.985C83.9318 199.35 72.4163 215.011 57.9482 232.74C57.0623 233.922 55.8813 235.4 54.7002 236.877V238.355C56.1765 236.286 57.3576 234.513 58.5387 233.036C73.0069 215.307 84.8176 199.35 82.1602 183.69Z" fill="url(#paint9_radial_142_954)"/>
<path d="M108.439 193.736C116.116 172.165 108.439 163.596 73.5974 140.548C70.94 138.776 67.9873 137.003 65.3299 134.934C61.7866 132.57 58.2434 130.206 54.7002 127.843V129.024C57.9482 131.388 61.1961 133.457 64.7393 135.821C67.692 137.594 70.3494 139.662 73.0069 141.435C107.258 164.187 114.935 172.756 107.553 193.736C100.762 212.647 87.7703 228.899 73.8927 246.037C67.3967 254.015 60.9008 261.993 54.7002 270.858V272.335C61.1961 263.175 67.9873 254.901 74.4832 246.628C88.3608 228.899 101.648 212.943 108.439 193.736Z" fill="url(#paint10_radial_142_954)"/>
<path d="M341.406 305.135C336.977 305.135 332.844 310.454 329.596 314.295C329.005 315.182 328.414 315.773 327.824 316.363C324.871 319.614 322.214 323.16 319.261 326.705C317.49 328.774 315.718 331.138 313.946 333.206L313.651 333.502C307.746 340.593 305.384 345.026 306.269 347.39C306.565 347.98 307.155 348.867 308.631 349.162C308.927 349.162 309.222 349.162 309.222 349.162C321.033 348.867 330.481 338.229 335.206 331.729C339.635 325.524 342.883 319.023 343.768 313.704C344.064 312.522 344.654 308.09 343.178 306.021C343.178 305.431 342.292 305.135 341.406 305.135ZM343.178 313.704C341.997 318.727 339.044 325.228 334.615 331.138C330.186 337.343 321.033 347.685 309.813 347.98V348.867V347.98C309.517 347.98 309.517 347.98 309.222 347.98C308.041 347.98 308.041 347.39 308.041 347.39C307.746 346.503 307.746 343.844 315.127 334.979L315.423 334.684C317.194 332.615 318.966 330.251 320.737 328.183C323.395 324.933 326.348 321.387 329.3 317.841C329.891 317.25 330.481 316.363 331.072 315.477C333.729 311.931 337.863 306.908 341.702 306.908C342.292 306.908 342.883 307.203 343.178 307.499C343.768 308.385 343.473 311.34 343.178 313.704Z" fill="url(#paint11_radial_142_954)"/>
<path d="M652.915 604.461C692.185 600.029 734.114 554.524 734.704 516.111C735.59 457.014 701.634 410.032 668.859 364.527C663.249 356.844 657.639 348.866 652.029 340.888L648.781 336.16C633.427 313.999 616.006 288.587 610.101 261.402C605.376 238.354 597.995 184.576 605.967 165.96C611.872 152.368 628.407 144.685 644.647 137.003C655.867 131.684 666.497 126.956 673.879 120.16L674.174 119.864C699.567 96.8165 699.567 96.8165 716.693 96.2255C722.008 95.9301 728.504 95.93 737.657 95.0436C750.058 93.8616 757.145 92.0887 762.459 90.9068C765.707 90.0203 768.365 89.4294 770.432 89.4294C775.746 89.4294 780.176 93.2707 794.939 105.681C838.639 142.617 837.753 206.737 836.867 268.789C835.981 346.798 834.8 427.761 923.086 453.173C935.782 456.718 948.183 458.787 959.994 458.787C993.064 458.787 1021.41 444.013 1041.78 415.941C1071.61 374.869 1079.58 310.453 1061.57 255.788C1019.93 129.911 920.723 58.1078 813.836 -10.4449C716.693 -72.7925 624.274 -89.9306 545.437 -101.159C539.827 -102.046 534.217 -102.341 529.197 -102.341C497.013 -102.341 481.954 -86.0893 462.762 -65.4053C455.38 -57.4272 447.703 -49.4491 438.254 -40.88C427.329 -31.4244 413.452 -24.9237 400.165 -18.423C378.315 -8.08103 357.941 1.66998 349.378 23.2405C331.367 69.0408 375.657 105.09 414.633 136.707C432.644 151.186 449.77 165.074 459.809 178.962C499.67 233.627 487.564 326.114 451.541 377.824C440.321 394.075 418.767 414.168 396.031 435.148C358.237 470.311 315.423 509.906 307.746 543.591C304.202 559.252 305.088 570.185 310.698 577.277C315.127 582.891 323.1 585.846 334.32 585.846C352.922 585.846 379.496 578.163 407.546 570.185C442.093 560.139 481.068 548.91 514.138 548.91C530.083 548.91 543.075 551.274 554.295 556.593C566.992 562.502 577.916 570.776 588.546 579.05C605.967 592.642 622.207 605.348 645.238 605.348C647.895 604.757 650.257 604.757 652.915 604.461ZM554.885 554.82C543.665 549.797 530.083 547.137 514.138 547.137C480.773 547.137 441.502 558.366 406.956 568.412C378.905 576.39 352.331 584.073 334.025 584.073C323.1 584.073 316.013 581.414 311.584 576.095C306.269 569.594 305.679 558.957 308.927 543.887C316.308 510.792 359.122 471.197 396.621 436.33C419.357 415.055 441.207 394.962 452.427 378.71C488.745 326.409 500.556 233.331 460.695 178.075C450.656 164.187 433.53 150.299 415.223 135.525C376.543 104.204 332.548 68.7453 350.264 23.8315C358.532 2.85196 378.905 -6.89908 400.46 -16.9456C414.042 -23.4463 427.92 -29.947 438.845 -39.698C448.294 -47.9716 455.97 -56.2452 463.352 -64.2234C482.249 -84.6119 497.308 -100.568 528.902 -100.568C533.921 -100.568 539.236 -100.273 544.846 -99.3862C623.683 -88.1577 716.102 -71.0196 812.655 -8.96749C919.247 59.2898 1018.16 131.093 1059.5 256.674C1077.22 310.748 1069.54 374.573 1040.01 415.35C1019.93 443.126 992.178 457.605 959.404 457.605C947.888 457.605 935.487 455.832 923.086 451.991C883.815 440.762 859.308 417.419 847.497 380.779C836.867 347.98 837.458 307.793 838.048 268.789C838.934 206.442 839.525 141.73 795.529 104.499C774.565 86.77 773.975 86.4745 761.869 89.4294C756.554 90.6113 749.468 92.3842 737.066 93.5661C727.913 94.4526 721.417 94.7481 716.398 94.7481C698.681 95.3391 698.681 95.3391 672.698 118.682L672.402 118.978C665.021 125.479 654.686 130.502 643.761 135.525C627.226 143.208 610.396 151.186 604.195 165.074C595.928 183.985 603.31 238.059 608.329 261.402C613.939 288.882 631.655 314.294 647.009 336.456L650.257 341.183C655.572 349.162 661.477 357.14 667.088 364.822C699.862 410.327 733.523 457.014 732.637 515.52C732.047 553.342 690.709 597.961 652.324 602.393C649.962 602.689 647.305 602.689 644.942 602.689C622.207 602.689 606.262 589.983 589.137 576.686C578.802 569.299 567.877 560.729 554.885 554.82Z" fill="url(#paint12_radial_142_954)"/>
<path d="M1343.25 149.414C1341.78 148.232 1339.41 146.163 1336.46 143.799C1325.24 134.048 1306.34 117.501 1293.06 117.501C1287.74 117.501 1283.9 120.161 1281.54 124.888C1278.59 131.094 1285.38 145.572 1289.81 155.028C1290.99 157.392 1291.88 159.46 1292.47 160.938C1293.65 163.893 1294.83 166.552 1295.71 169.211C1301.92 185.758 1308.41 202.601 1313.14 220.921C1313.73 222.99 1314.02 225.058 1314.61 227.422C1316.68 237.173 1319.63 249.583 1326.42 255.493C1329.08 257.857 1331.74 259.334 1334.1 260.221C1335.28 260.516 1336.46 260.812 1337.35 260.812C1345.32 260.812 1350.93 251.652 1356.24 242.787C1357.43 240.719 1358.61 238.65 1360.08 236.878L1361.26 235.105C1381.64 204.079 1394.04 185.463 1356.54 159.46C1353 156.505 1348.27 152.96 1343.25 149.414ZM1360.08 233.923L1358.9 235.696C1357.72 237.764 1356.24 239.832 1355.06 241.605C1350.04 250.174 1344.73 258.744 1337.35 258.744C1336.46 258.744 1335.58 258.448 1334.39 258.448C1332.03 257.857 1329.67 256.38 1327.31 254.016C1320.81 248.401 1318.16 236.287 1316.09 226.831C1315.5 224.467 1315.2 222.399 1314.61 220.33C1309.89 201.715 1303.39 184.872 1296.9 168.325C1296.01 165.961 1294.83 163.006 1293.65 160.051C1293.06 158.574 1292.17 156.505 1290.99 154.141C1286.86 145.572 1280.07 130.798 1282.72 125.184C1285.09 120.752 1288.33 118.388 1293.06 118.388C1305.75 118.388 1324.36 134.639 1335.28 144.095C1338.23 146.754 1340.6 148.823 1342.07 149.709C1347.09 153.255 1351.82 156.801 1355.36 159.165C1391.97 185.167 1379.87 203.488 1360.08 233.923Z" fill="url(#paint13_radial_142_954)"/>
<path d="M1367.47 116.319C1360.97 111.592 1354.47 106.273 1347.68 100.659C1326.72 83.5204 1302.8 64.0183 1281.25 64.0183C1277.11 64.0183 1272.98 64.9048 1268.85 66.3822C1231.05 80.5655 1236.37 120.752 1243.16 143.504C1247.29 157.392 1252.31 170.984 1257.33 184.281C1263.24 199.646 1269.44 215.603 1273.57 231.854C1276.23 241.605 1277.41 251.947 1278.59 261.994C1282.43 292.429 1285.97 321.387 1326.72 321.387C1329.97 321.387 1333.51 321.091 1337.05 320.796C1341.78 320.205 1345.62 319.614 1348.86 318.432C1359.79 314.886 1363.04 308.385 1367.76 298.339C1369.24 295.384 1371.01 291.838 1373.08 288.292C1376.32 282.678 1379.87 277.359 1383.41 272.04V270.563C1379.57 276.177 1375.73 281.791 1372.19 287.701C1370.12 291.543 1368.35 294.793 1366.87 297.748C1362.15 307.499 1358.9 313.999 1348.27 317.25C1345.02 318.136 1341.48 319.023 1336.76 319.318C1333.21 319.614 1329.67 319.909 1326.42 319.909C1286.56 319.909 1283.02 292.724 1279.18 261.107C1278 251.061 1276.52 240.719 1274.16 230.968C1270.03 214.716 1263.83 198.76 1257.92 183.395C1252.9 170.098 1247.59 156.505 1243.75 142.913C1237.25 120.456 1231.94 81.1565 1269.14 66.9732C1272.98 65.4957 1277.11 64.9048 1281.25 64.9048C1302.51 64.9048 1326.13 84.4069 1347.09 101.25C1353.88 106.864 1360.38 112.183 1367.17 116.91C1372.19 120.456 1376.32 123.706 1379.57 126.07C1380.75 126.957 1382.23 127.843 1383.7 128.73V127.548C1382.52 126.661 1381.34 126.07 1380.16 125.184C1376.62 122.82 1372.48 119.865 1367.47 116.319Z" fill="url(#paint14_radial_142_954)"/>
<path d="M1368.06 142.323C1364.51 139.959 1360.08 136.709 1355.06 133.163C1347.98 128.14 1341.48 122.526 1334.39 116.911C1332.92 115.729 1331.15 114.252 1329.08 112.479C1317.27 102.433 1301.03 88.5447 1285.97 88.5447C1281.84 88.5447 1278 89.7266 1274.45 91.795C1248.47 107.751 1264.12 146.164 1273.57 168.917C1274.75 171.576 1275.64 174.236 1276.52 176.6C1282.72 192.556 1288.92 209.103 1293.35 226.241C1294.24 229.492 1295.12 233.333 1296.01 237.47C1300.14 256.085 1305.75 281.497 1319.93 290.657C1322.29 292.134 1324.65 293.021 1327.31 293.316C1328.19 293.316 1328.78 293.612 1329.67 293.612C1347.09 293.612 1364.22 267.314 1376.91 247.812C1379.28 244.266 1381.34 241.015 1383.11 238.356V236.879C1381.05 239.833 1378.68 243.379 1376.03 247.221C1363.63 266.427 1346.21 292.43 1329.37 292.43C1328.78 292.43 1327.9 292.43 1327.31 292.134C1324.95 291.839 1322.58 290.953 1320.22 289.475C1306.34 280.611 1300.73 255.199 1296.6 236.879C1295.71 232.742 1294.83 228.9 1293.94 225.65C1289.51 208.216 1283.02 191.669 1277.11 175.713C1276.23 173.349 1275.05 170.69 1274.16 168.03C1265.01 145.278 1249.65 107.456 1274.75 91.795C1278 89.7266 1281.84 88.8402 1285.68 88.8402C1300.44 88.8402 1316.38 102.433 1328.19 112.479C1329.97 113.956 1331.74 115.434 1333.51 116.911C1340.6 122.821 1347.39 128.14 1354.18 133.163C1358.9 136.709 1363.63 139.959 1367.17 142.323C1371.89 145.573 1376.32 148.528 1381.34 152.074C1381.93 152.37 1382.23 152.665 1382.82 152.961V151.779C1382.52 151.483 1382.23 151.188 1381.64 151.188C1377.5 148.528 1372.78 145.278 1368.06 142.323Z" fill="url(#paint15_radial_142_954)"/>
<path d="M1214.52 351.821C1216.29 353.89 1219.24 357.14 1227.21 357.731C1256.74 360.095 1301.32 363.936 1339.12 398.213L1339.41 398.508C1352.41 410.328 1362.74 425.102 1370.42 442.831C1372.48 447.559 1376.03 450.514 1379.87 450.514C1381.05 450.514 1381.93 450.218 1383.11 449.923V448.741C1381.93 449.332 1381.05 449.627 1379.87 449.627C1376.32 449.627 1373.07 446.968 1371.01 442.535C1363.33 424.806 1352.7 409.737 1339.71 397.917L1339.41 397.622C1301.62 363.05 1256.74 359.504 1227.21 357.14C1219.54 356.549 1216.58 353.594 1215.11 351.526C1211.27 346.503 1210.97 339.115 1211.27 336.752C1215.4 318.727 1220.42 296.27 1218.65 271.449C1215.4 229.786 1198.87 194.032 1182.63 159.164C1169.63 131.389 1155.17 99.7718 1160.19 85.5884C1169.34 59.8812 1206.25 23.2409 1221.9 8.76209C1231.64 -0.397973 1243.45 -5.12574 1256.74 -5.12574C1264.42 -5.12574 1270.91 -3.64831 1275.05 -2.17088C1302.21 6.6937 1340.6 26.7867 1383.41 54.2669V53.085C1340.6 25.6048 1302.21 5.51175 1275.34 -3.05735C1271.21 -4.53478 1264.42 -6.01221 1256.74 -6.01221C1243.16 -6.01221 1231.35 -1.28442 1221.31 8.17113C1205.66 22.6499 1168.75 59.5857 1159.6 85.2929C1154.28 100.067 1169.04 131.684 1182.04 159.755C1197.98 194.327 1214.81 230.081 1218.06 271.745C1219.83 296.27 1214.81 318.727 1210.68 336.752C1210.09 338.82 1210.68 346.798 1214.52 351.821Z" fill="url(#paint16_radial_142_954)"/>
<path d="M1270.32 325.228C1277.11 328.774 1286.27 330.547 1295.12 332.024C1301.62 333.206 1308.41 334.388 1314.02 336.457C1317.56 337.638 1321.4 339.707 1325.54 341.775C1334.1 345.912 1343.55 350.64 1352.41 350.64C1354.18 350.64 1355.65 350.344 1357.13 350.049C1357.43 350.049 1358.02 349.753 1358.31 349.753C1370.71 345.912 1377.5 330.251 1383.41 315.772V313.113V313.409C1377.5 328.183 1371.01 344.73 1358.31 348.571C1358.02 348.571 1357.43 348.867 1357.13 348.867C1355.65 349.162 1354.18 349.458 1352.41 349.458C1343.84 349.458 1334.4 344.73 1326.13 340.593C1321.99 338.525 1318.16 336.752 1314.61 335.275C1309 333.206 1302.21 332.024 1295.42 330.842C1286.56 329.365 1277.41 327.887 1270.91 324.046C1256.44 316.068 1257.92 301.294 1259.4 285.928C1259.99 279.723 1260.58 273.518 1260.28 267.904C1256.44 218.853 1238.14 179.553 1220.42 141.436C1212.45 124.298 1211.86 105.386 1218.65 88.2482C1226.03 69.9281 1241.98 54.8583 1261.76 47.1757C1267.96 44.8118 1274.46 43.6299 1280.95 43.6299C1309.3 43.6299 1336.17 65.4958 1359.79 84.7024C1366.58 90.0212 1372.78 95.3399 1378.98 99.7722C1380.46 100.954 1381.93 101.841 1383.41 103.023V101.841C1382.23 100.954 1381.05 100.068 1379.57 99.1813C1373.67 94.749 1367.17 89.7257 1360.67 84.1115C1337.05 64.6094 1310.18 42.7434 1281.25 42.7434C1274.46 42.7434 1267.96 43.9253 1261.76 46.2892C1241.68 53.9719 1225.74 69.0417 1218.06 87.6573C1210.97 105.091 1211.56 124.002 1219.83 141.436C1237.55 179.258 1255.56 218.558 1259.4 267.608C1259.69 273.223 1259.1 279.428 1258.51 285.633C1256.74 301.294 1255.26 316.954 1270.32 325.228Z" fill="url(#paint17_radial_142_954)"/>
<path d="M1251.13 340.888C1257.03 342.365 1262.94 343.842 1268.85 345.024C1299.85 352.116 1326.42 358.321 1353 382.551L1353.59 383.142C1359.79 388.756 1364.51 391.416 1368.35 391.416C1368.94 391.416 1369.53 391.416 1370.12 391.12C1376.03 389.643 1378.69 381.665 1381.93 371.323C1382.52 369.845 1382.82 368.072 1383.41 366.595V363.64C1382.52 366.004 1381.64 368.663 1381.05 371.027C1378.09 381.074 1375.14 389.052 1369.83 390.234C1365.99 391.12 1360.97 388.461 1354.18 382.256L1353.59 381.665C1326.72 357.435 1299.85 351.23 1269.14 343.842C1263.53 342.66 1257.62 341.183 1251.42 339.706C1229.87 334.387 1233.41 313.998 1236.96 294.201C1238.43 285.632 1240.2 276.767 1239.61 269.38C1236.07 223.875 1218.65 186.348 1201.82 150.004C1199.75 145.571 1197.69 141.435 1195.62 137.298C1184.69 116.023 1175.54 97.7026 1188.83 74.9502C1198.87 57.812 1213.93 43.9241 1228.69 30.6273C1231.35 28.2634 1234 25.8995 1236.66 23.2401C1242.27 17.9214 1249.95 15.262 1259.4 15.262C1295.71 15.262 1351.82 53.9707 1384 77.3141V76.7231C1351.52 53.3797 1296.01 14.9666 1259.4 14.9666C1249.65 14.9666 1241.68 17.6259 1236.07 23.2401C1233.41 25.604 1230.76 27.9679 1228.39 30.6273C1213.63 44.2196 1198.57 58.1075 1188.53 75.2457C1174.95 98.2936 1184.69 117.796 1195.32 138.48C1197.39 142.616 1199.46 146.753 1201.52 151.186C1218.35 187.53 1235.78 224.762 1239.32 270.266C1239.91 277.654 1238.43 286.518 1236.66 295.087C1232.53 314.589 1228.69 335.273 1251.13 340.888Z" fill="url(#paint18_radial_142_954)"/>
<path d="M629.884 766.683C622.502 777.911 613.054 792.095 616.302 801.55C617.483 805.391 621.026 808.346 626.046 810.415C626.931 810.71 628.112 811.006 629.294 811.006C640.809 811.006 658.82 793.276 674.765 777.911C684.804 768.16 694.548 758.705 700.158 756.045C727.618 743.635 765.708 737.725 799.073 732.406C812.36 730.338 824.761 728.27 836.277 726.201C862.556 721.178 887.949 718.519 911.57 718.519C989.226 718.519 1054.78 746.59 1105.56 801.846C1111.17 808.051 1119.73 811.301 1130.36 811.301C1163.73 811.301 1220.72 778.798 1261.17 718.814C1285.38 682.765 1320.22 609.189 1283.9 520.838C1269.44 485.38 1247.59 468.833 1215.7 468.833C1191.49 468.833 1163.73 477.697 1131.55 488.039C1091.98 500.745 1047.39 515.224 999.265 515.224C961.766 515.224 927.515 506.655 894.149 488.926C791.396 433.965 788.443 334.091 797.301 253.128C800.845 221.511 795.235 196.69 781.062 181.029C771.022 170.096 757.735 164.187 742.086 164.187C712.559 164.187 675.355 187.235 662.068 231.262C649.372 272.63 679.194 310.452 713.74 353.889C752.716 402.939 796.711 458.786 788.148 533.249C784.014 570.185 770.432 605.643 752.125 627.804C738.248 644.647 725.846 646.42 713.15 647.897C703.111 649.079 693.072 650.261 680.966 657.944C671.812 663.854 668.86 673.605 665.907 684.242C663.84 691.334 661.773 699.016 657.344 705.222C654.982 708.472 650.848 709.358 646.124 709.949C640.218 710.836 633.723 712.018 630.179 719.7C627.817 725.019 631.065 731.224 634.018 737.134C636.675 742.157 639.333 747.476 638.447 751.613C637.561 754.568 634.018 760.182 629.884 766.683ZM635.199 735.952C632.246 730.042 629.294 724.428 631.36 719.996C634.608 713.2 640.514 712.313 646.124 711.131C650.848 710.245 655.572 709.654 658.23 705.517C662.954 699.016 665.021 691.629 667.088 684.242C670.041 674.196 672.698 664.445 681.556 658.83C693.367 651.443 703.406 650.261 713.15 649.079C726.437 647.306 739.133 645.829 753.306 628.395C771.908 605.643 785.491 570.185 789.624 532.953C798.187 457.9 753.897 401.757 714.921 352.411C680.67 309.27 651.143 271.744 663.545 231.262C676.536 188.121 712.855 165.369 741.791 165.369C756.85 165.369 770.137 170.983 779.585 181.62C793.168 196.986 798.778 221.511 795.235 252.537C786.376 334.091 789.329 434.852 892.968 490.108C926.629 508.132 961.175 516.702 998.97 516.702C1047.39 516.702 1092.27 502.223 1131.84 489.517C1163.73 479.175 1191.49 470.31 1215.4 470.31C1247 470.31 1267.37 485.971 1281.84 521.134C1317.86 608.598 1283.31 681.583 1259.4 717.337C1221.01 774.956 1163.43 809.233 1130.07 809.233C1119.73 809.233 1112.06 806.278 1106.45 800.368C1055.07 744.817 989.521 716.45 910.98 716.45C887.063 716.45 861.67 719.11 835.096 724.133C823.58 726.497 811.179 728.27 797.892 730.338C764.231 735.657 726.142 741.566 698.386 754.272C692.481 756.932 683.032 766.092 672.403 776.434C656.753 791.799 639.037 809.233 628.112 809.233C627.227 809.233 626.341 809.233 625.455 808.937C620.731 807.164 617.778 804.8 616.597 801.255C613.644 792.39 622.798 778.798 629.884 767.865C634.313 761.364 637.856 755.75 638.742 751.908C640.809 746.59 638.152 740.975 635.199 735.952Z" fill="url(#paint19_radial_142_954)"/>
<path d="M1343.25 564.864C1347.09 567.228 1353.29 568.706 1360.67 568.706C1367.17 568.706 1375.14 567.524 1383.41 565.16V563.091C1375.14 565.751 1367.17 566.933 1360.67 566.933C1353.88 566.933 1347.98 565.751 1344.43 563.387C1327.01 552.158 1319.34 532.656 1311.36 511.972C1304.28 493.948 1297.19 475.628 1283.02 462.626V462.035H1282.43C1266.19 447.852 1244.34 440.76 1215.7 440.76C1187.65 440.76 1158.41 447.556 1134.79 452.875C1118.55 456.421 1104.68 459.671 1095.82 459.671C1090.5 459.671 1087.25 458.489 1086.07 456.421C1084.3 453.466 1085.78 447.852 1089.91 439.874C1110.29 402.642 1151.62 313.701 1148.67 277.061C1146.31 248.103 1132.43 217.964 1119.14 189.006C1099.66 146.752 1079.28 103.315 1094.05 61.9472C1110.88 14.6695 1184.69 -69.8395 1237.25 -77.2267C1240.2 -77.5222 1243.75 -77.8177 1247 -77.8177C1281.25 -77.8177 1331.15 -57.4291 1383.41 -27.8805V-29.9489C1331.15 -59.4975 1281.25 -79.5906 1247 -79.5906C1243.45 -79.5906 1239.91 -79.2951 1236.96 -78.9996C1183.81 -71.6124 1109.1 13.783 1091.98 61.3562C1076.92 103.611 1097.29 147.343 1117.08 189.893C1130.36 218.85 1144.24 248.399 1146.6 277.061C1149.26 309.86 1113.24 392.891 1088.14 438.987C1083.12 447.852 1081.94 453.762 1084.3 457.603C1086.07 460.558 1089.91 462.035 1095.82 462.035C1104.97 462.035 1119.14 458.785 1135.38 455.239C1159.01 449.92 1188.24 443.124 1215.7 443.124C1244.04 443.124 1265.3 449.92 1281.25 464.104C1295.12 476.81 1302.51 495.13 1309.3 513.154C1317.56 533.543 1325.54 553.34 1343.25 564.864Z" fill="url(#paint20_radial_142_954)"/>
<path d="M671.812 735.659C673.584 736.25 677.127 736.545 681.261 736.545C690.119 736.545 723.484 735.068 775.451 717.93C818.856 703.451 869.642 695.768 918.657 695.768C998.97 695.768 1052.41 707.883 1121.21 773.777C1126.23 778.504 1132.73 780.868 1140.7 780.868C1170.52 780.868 1215.7 748.365 1243.75 706.701C1265.6 674.198 1297.19 608.009 1264.42 528.523C1250.24 494.542 1232.82 489.815 1215.7 489.815C1194.73 489.815 1168.45 498.384 1138.04 508.135C1097 521.432 1050.64 536.206 999.265 536.206C958.223 536.206 920.724 526.75 884.11 507.248C768.955 445.787 767.479 331.139 776.337 250.471C778.995 225.355 775.156 205.557 765.412 194.624C759.507 188.123 751.535 184.578 742.086 184.578C720.236 184.578 692.776 202.602 682.146 236.583C672.698 267.609 699.272 300.999 730.275 340.003C769.546 389.645 818.561 451.697 809.112 534.729C806.455 558.367 799.959 581.12 790.215 601.804C774.566 634.898 754.192 662.969 729.094 685.426C712.559 700.201 696.024 710.543 683.918 717.93C672.993 724.726 666.202 728.863 666.792 732.113C667.088 733.591 668.564 734.773 671.812 735.659ZM684.509 718.816C696.615 711.429 713.15 701.087 729.685 686.313C754.783 663.856 775.451 635.785 791.101 602.395C800.844 581.415 807.34 558.663 809.998 535.024C819.446 451.697 770.432 389.645 730.866 339.708C700.158 300.999 673.879 267.609 683.032 237.174C693.367 203.489 720.531 185.76 742.086 185.76C751.535 185.76 759.212 189.01 764.822 195.511C774.566 206.148 778.109 225.65 775.451 250.471C766.593 331.434 768.07 446.378 883.815 508.135C920.428 527.637 958.223 537.092 999.265 537.092C1050.94 537.092 1097.29 522.023 1138.34 508.726C1168.75 498.975 1194.73 490.406 1215.7 490.406C1232.23 490.406 1249.65 495.133 1263.53 528.819C1296.01 607.714 1264.42 673.607 1242.86 706.11C1215.7 746.887 1169.93 779.982 1140.7 779.982C1133.02 779.982 1126.53 777.618 1121.8 773.186C1088.44 741.273 1057.43 720.885 1024.07 709.361C995.426 699.314 963.833 695.177 918.657 695.177C869.642 695.177 818.856 703.156 775.156 717.634C723.189 734.773 690.119 736.25 681.261 736.25C677.127 736.25 673.584 735.955 671.812 735.659C669.155 735.068 667.678 734.182 667.383 733C667.383 729.454 674.469 725.021 684.509 718.816Z" fill="url(#paint21_radial_142_954)"/>
<path d="M742.085 204.965C726.141 204.965 708.72 220.921 703.11 235.4C699.271 244.856 702.224 261.107 710.787 279.132C718.759 295.975 729.684 308.681 737.656 311.045C738.837 311.34 740.019 311.636 741.2 311.636C742.676 311.636 743.857 311.34 745.038 311.045C755.373 307.499 755.077 301.294 754.487 287.406C754.191 278.837 753.601 267.313 755.373 251.356C757.735 229.786 754.487 213.534 749.762 208.511C748.877 206.443 746.81 204.965 742.085 204.965ZM754.487 250.765C752.715 267.017 753.01 278.541 753.601 287.11C754.191 300.998 754.191 306.021 745.038 309.272C742.971 310.158 740.609 310.158 738.247 309.272C730.57 306.908 720.236 294.497 712.263 277.95C703.7 260.516 701.043 244.56 704.586 235.4C710.196 221.512 727.027 205.852 742.085 205.852C746.219 205.852 747.991 207.034 749.172 208.511C753.601 213.83 756.554 229.786 754.487 250.765Z" fill="url(#paint22_radial_142_954)"/>
<path d="M577.031 395.258C574.964 393.485 573.192 392.599 571.716 392.599C567.582 392.599 564.629 397.918 560.2 405.896C555.771 414.169 549.571 425.398 538.646 436.922L535.398 440.172C522.997 453.174 517.387 459.083 518.863 462.334C519.453 463.811 521.52 464.402 525.064 464.402C528.016 464.402 532.74 463.811 540.417 462.925C543.665 462.629 546.618 462.334 549.866 462.334C575.554 462.334 596.814 476.812 612.463 487.154C621.616 493.36 628.703 498.087 634.018 498.087C636.085 498.087 637.856 497.201 639.332 495.428C655.572 474.744 598.29 414.76 577.031 395.258ZM638.151 494.837C636.97 496.314 635.789 496.905 634.018 496.905C629.293 496.905 622.207 492.178 613.349 486.268C597.7 475.63 576.145 461.152 549.866 461.152C546.618 461.152 543.37 461.447 540.122 461.743C532.74 462.925 528.016 463.22 525.064 463.22C522.111 463.22 520.634 462.925 520.339 462.038C519.453 459.674 526.245 452.583 536.579 441.354L539.827 438.104C550.752 426.58 556.953 415.056 561.677 406.782C565.811 399.395 568.468 394.372 571.716 394.372C572.897 394.372 574.373 395.258 576.145 396.736C602.424 420.375 652.62 476.221 638.151 494.837Z" fill="url(#paint23_radial_142_954)"/>
<path d="M541.008 152.073C543.665 152.073 545.437 148.527 547.504 140.549C554.885 110.409 579.393 70.5186 617.482 49.2436C655.867 27.6731 681.556 22.0589 695.433 19.104C702.224 17.6266 705.768 16.7401 706.653 14.9672C706.949 14.3762 706.949 13.4898 706.358 12.6033C703.701 7.87554 656.162 -19.0137 587.365 -24.3324L584.412 -24.6279C578.212 -25.2189 572.897 -25.5144 567.877 -25.5144C549.866 -25.5144 535.693 -20.4911 502.032 7.87552C496.717 12.3078 491.403 16.4446 486.088 20.5814C469.848 32.9918 455.675 43.9248 456.561 56.0397C457.151 65.4953 466.6 74.6553 485.792 85.2928C507.052 97.1123 520.044 120.456 528.606 135.821C533.921 145.572 537.464 152.073 541.008 152.073ZM486.088 84.4064C467.486 74.0644 458.037 64.6088 457.151 55.7442C456.266 43.9248 470.143 33.2873 486.088 20.8769C491.403 16.7401 496.717 12.6033 502.032 8.17103C535.398 -20.1956 549.866 -25.2189 567.287 -25.2189C572.306 -25.2189 577.621 -24.9234 583.822 -24.3324L586.774 -24.037C653.8 -18.7182 702.52 7.87554 704.882 12.6033C705.472 13.4898 705.177 14.0807 705.177 14.3762C704.587 15.8536 700.748 16.4446 694.843 17.9221C680.965 20.8769 655.277 26.4912 616.597 48.0616C578.212 69.3366 553.704 109.523 546.323 139.958C544.551 147.345 542.779 150.891 540.712 150.891C537.76 150.891 533.921 143.799 528.902 135.23C520.634 119.865 507.642 96.2259 486.088 84.4064Z" fill="url(#paint24_radial_142_954)"/>
<path d="M546.618 202.896C549.276 202.896 551.047 199.941 552.228 193.145C559.905 152.368 576.44 94.7478 631.951 64.0172C649.076 54.5617 668.564 46.879 691.3 40.9693C695.729 39.7874 700.748 36.5371 705.473 33.2867C711.673 29.1499 717.874 25.0131 723.779 25.0131C724.37 25.0131 725.256 25.0131 725.846 25.3086C729.094 25.8996 731.456 27.6725 733.818 29.7409C736.476 31.8093 739.133 33.8777 742.381 33.8777C743.562 33.8777 745.039 33.5822 746.515 32.9912C748.877 32.1048 750.354 30.0364 751.535 28.2635C753.306 25.6041 755.078 23.2402 760.097 23.5357C765.117 23.8312 767.774 27.6725 770.727 31.8093C772.794 34.7641 774.861 37.4235 777.813 39.1964C779.88 40.3784 783.719 41.5603 787.262 41.5603C789.624 41.5603 791.396 40.9693 792.282 39.7874C793.167 38.6055 793.463 36.8325 792.872 34.7641C790.805 27.6725 776.042 21.1718 766.003 17.035C763.05 15.853 760.688 14.6711 758.916 13.7846C744.153 6.10199 729.685 -0.694185 716.988 -6.01293C664.726 -29.0608 616.892 -42.9487 571.125 -48.8584C566.106 -49.4494 561.382 -49.7449 557.543 -49.7449C535.103 -49.7449 517.387 -39.9938 482.84 -7.49036C474.277 0.48776 465.419 7.28393 457.152 13.7846C438.255 28.5589 423.196 40.3784 423.491 54.8572C423.786 66.3812 433.826 78.7916 455.085 93.8614C489.336 117.796 512.072 154.436 527.13 178.666C535.988 192.849 542.189 202.896 546.618 202.896ZM455.085 92.6794C434.121 77.9051 424.082 65.7902 423.786 54.5617C423.491 40.3784 438.255 28.8544 457.152 14.0801C465.715 7.57943 474.573 0.487777 483.135 -7.19486C517.682 -39.4028 535.103 -49.1539 557.248 -49.1539C561.382 -49.1539 565.811 -48.8584 570.83 -48.2674C616.597 -42.3577 664.135 -28.4699 716.398 -5.71743C728.799 -0.398681 743.562 6.39749 758.03 14.0801C759.802 14.9666 762.164 16.1485 765.117 17.3304C774.861 21.4672 789.624 27.968 791.396 34.4686C791.986 36.2416 791.691 37.719 791.101 38.6055C790.215 39.7874 788.148 40.0829 786.967 40.0829C784.014 40.0829 780.176 38.901 778.109 37.719C775.451 36.2416 773.384 33.2867 771.318 30.6273C768.365 26.4905 765.412 22.3537 760.097 22.0582C754.487 21.4673 752.716 24.4221 750.944 27.0815C749.763 28.8544 748.582 30.6273 746.22 31.5138C744.743 32.1048 743.562 32.4002 742.381 32.4002C739.133 32.4002 736.771 30.6273 734.409 28.5589C732.047 26.786 729.389 24.7176 725.846 24.1266C725.256 24.1266 724.37 23.8312 723.779 23.8312C717.579 23.8312 711.083 28.2634 704.882 32.4002C699.863 35.6506 695.434 38.901 691.005 40.0829C668.269 45.9926 648.781 53.6752 631.655 63.1308C575.85 94.1568 559.019 152.072 551.342 192.849C550.161 198.759 548.685 201.714 546.618 201.714C542.78 201.714 536.284 191.667 527.426 177.484C512.367 153.254 489.336 116.909 455.085 92.6794Z" fill="url(#paint25_radial_142_954)"/>
<path d="M655.572 573.436C675.65 571.072 694.842 557.184 703.996 537.978C712.559 520.544 716.988 490.7 690.709 448.741C679.488 430.716 667.087 412.396 655.276 394.667C621.321 344.139 589.136 296.565 576.144 248.697C561.086 194.623 573.192 150.004 613.939 108.341C649.371 72.2916 696.024 51.6075 742.085 51.6075C776.632 51.6075 807.635 63.7225 829.19 85.8839C852.811 110.114 864.622 145.868 863.146 188.713C862.85 198.76 862.26 209.102 861.965 220.035C860.193 258.743 858.126 302.771 864.327 339.411C871.413 381.37 888.539 407.373 916.589 418.897C931.648 425.102 945.821 428.057 958.813 428.057C982.434 428.057 1002.51 417.715 1016.98 398.213C1041.49 365.118 1047.39 308.089 1031.74 256.675C997.788 146.163 916.589 80.2697 796.12 9.64854C704.586 -43.8344 627.521 -60.6771 557.543 -70.4282C552.228 -71.3146 547.503 -71.6101 542.779 -71.6101C513.548 -71.6101 499.67 -56.8358 482.249 -37.9247C475.458 -30.8331 468.667 -23.1504 459.809 -15.4678C449.769 -6.60319 441.207 -1.28446 433.53 3.44332C421.128 11.126 410.499 17.6266 398.983 35.0603C375.657 69.9277 406.956 91.2027 439.73 113.66C457.151 125.479 475.163 137.889 484.611 152.368C545.141 243.969 520.634 341.775 477.82 402.94C465.419 420.374 447.703 436.921 428.51 454.355C405.184 475.63 381.267 497.791 367.39 522.317C361.484 532.954 359.713 540.046 362.37 544.183C364.142 547.138 368.275 548.615 374.476 548.615C385.696 548.615 403.708 543.887 424.672 538.568C453.903 530.886 490.221 521.43 522.406 521.43C539.531 521.43 553.999 524.09 565.81 529.408C577.621 534.727 587.365 542.41 597.109 549.797C612.758 562.207 627.816 573.731 648.781 573.731C651.143 574.027 653.21 573.731 655.572 573.436ZM566.105 528.817C553.999 523.203 539.826 520.544 522.406 520.544C490.221 520.544 453.608 529.999 424.376 537.682C403.708 543.001 385.696 547.729 374.476 547.729C368.571 547.729 364.732 546.251 362.96 543.592C360.598 539.75 362.37 532.659 367.98 522.612C381.562 498.087 405.774 476.221 428.805 454.946C447.703 437.512 465.714 420.965 478.115 403.531C503.213 367.778 518.272 327 521.225 285.632C524.472 238.355 512.366 193.441 485.202 152.073C475.458 137.298 457.446 124.888 440.026 113.069C407.546 90.9072 376.838 69.6322 399.574 35.6513C411.089 18.2176 421.719 11.7169 433.825 4.32978C441.502 -0.397991 450.36 -5.71672 460.399 -14.5813C468.962 -22.2639 476.048 -29.6511 482.84 -37.0383C500.26 -55.6539 514.138 -70.4282 542.779 -70.4282C547.208 -70.4282 552.228 -70.1327 557.247 -69.2462C626.931 -59.4952 703.996 -42.948 795.529 10.8305C915.703 81.4516 996.902 147.05 1030.86 257.266C1046.51 308.385 1040.6 365.118 1016.39 398.213C1002.22 417.419 982.139 427.761 958.813 427.761C945.821 427.761 931.943 424.806 916.885 418.601C889.129 407.373 872.299 381.665 865.213 339.706C859.012 303.066 861.079 259.334 862.85 220.33C863.441 209.397 863.736 199.055 864.031 189.009C865.213 145.868 853.402 109.818 829.78 85.2929C808.226 62.836 776.927 50.7211 742.085 50.7211C695.728 50.7211 648.781 71.4051 613.348 107.75C591.794 129.911 578.211 152.664 572.306 177.485C566.991 199.646 567.877 222.989 575.259 248.697C588.546 296.565 620.73 344.434 654.686 394.962C666.497 412.691 678.898 430.716 690.118 449.036C716.102 490.7 711.673 520.248 703.405 537.387C694.252 556.298 675.65 569.89 655.572 572.254C653.21 572.549 651.143 572.549 648.781 572.549C628.112 572.549 613.348 561.025 597.699 548.91C587.955 541.819 577.916 534.136 566.105 528.817Z" fill="url(#paint26_radial_142_954)"/>
<path d="M675.059 536.796C682.736 531.182 687.461 523.204 688.642 513.453C692.185 484.495 666.496 441.945 643.17 414.465C614.234 380.188 585.593 343.548 571.715 308.09C571.125 306.317 569.944 301.294 568.763 295.088C564.334 274.109 556.657 238.946 545.732 238.946C544.846 238.946 543.665 239.242 542.779 239.833C538.35 242.492 536.873 247.811 538.645 256.084C540.121 262.88 543.369 270.563 546.322 277.359C549.57 284.451 552.227 290.952 552.227 294.497C552.227 303.657 547.798 307.499 543.665 311.636C540.417 314.59 537.169 317.841 535.988 323.16C534.511 330.251 537.464 335.57 540.121 340.593C542.779 345.321 545.436 350.049 544.55 356.55C543.074 368.073 506.461 409.737 474.277 446.377C447.702 476.812 424.671 503.111 424.967 508.134C424.967 508.429 425.262 508.725 425.262 509.02C427.329 510.793 431.463 511.68 437.663 511.68C447.112 511.68 460.399 509.611 475.753 506.952C494.355 503.997 515.614 500.451 533.921 500.451C548.094 500.451 559.019 502.52 566.696 506.656C570.829 509.02 575.554 511.68 580.573 514.635C602.718 527.34 629.883 543.297 653.209 543.297C661.477 543.592 668.859 541.228 675.059 536.796ZM566.696 506.065C558.723 501.929 548.094 499.86 533.626 499.86C515.319 499.86 494.06 503.111 475.458 506.361C460.104 508.725 446.817 511.089 437.368 511.089C431.463 511.089 427.624 510.202 425.557 508.429C425.557 508.429 425.557 508.429 425.557 508.134C425.262 503.406 449.179 476.221 474.572 446.968C506.756 410.032 543.665 368.369 545.141 356.55C546.027 350.049 543.369 345.026 540.712 340.002C537.759 334.684 535.102 329.956 536.578 323.16C537.759 317.841 540.712 315.181 543.96 311.931C548.094 307.794 552.523 303.658 552.818 294.202C552.818 290.361 550.161 284.155 546.913 276.768C543.96 269.972 540.712 262.289 539.236 255.789C537.464 248.106 538.645 243.083 542.779 240.423C543.665 239.833 544.55 239.537 545.436 239.537C555.771 239.537 563.448 275.586 567.581 295.088C569.058 301.589 569.944 306.317 570.829 308.09C585.002 343.548 613.643 380.188 642.58 414.465C665.611 441.649 691.299 483.904 687.756 512.566C686.575 522.317 682.146 530 674.764 535.319C668.859 539.751 661.477 541.819 652.914 541.819C629.883 541.819 602.718 525.863 580.869 513.157C575.554 511.089 570.829 508.429 566.696 506.065Z" fill="url(#paint27_radial_142_954)"/>
<path d="M664.725 499.859C667.383 475.629 641.399 437.216 628.407 422.737C605.967 397.325 590.317 375.755 579.983 361.572C569.649 347.388 564.039 339.706 560.495 339.706C557.838 339.706 556.657 342.956 555.771 350.934C549.275 411.213 510.3 443.717 487.269 463.219C477.23 471.788 470.438 477.402 470.143 482.13C470.143 483.607 470.438 484.789 471.619 485.676C473.686 488.04 477.23 488.926 482.249 488.926C487.859 488.926 495.241 487.449 503.508 485.971C514.433 483.903 526.835 481.834 539.236 481.834C556.362 481.834 570.239 486.267 581.755 494.836C597.699 507.246 621.321 520.543 639.923 520.543C646.714 520.543 652.324 518.77 657.048 515.52C661.182 511.678 664.135 506.36 664.725 499.859ZM639.332 519.361C621.025 519.361 597.699 506.064 581.755 493.949C570.239 485.085 556.066 480.652 538.941 480.652C526.244 480.652 513.843 483.016 502.918 484.789C494.65 486.267 487.269 487.744 481.659 487.744C476.934 487.744 473.686 486.858 471.619 484.789C470.734 483.903 470.438 483.016 470.438 481.834C470.734 477.698 477.525 471.788 487.269 463.514C510.595 444.012 549.57 411.213 556.066 350.639C556.952 343.547 558.133 340.297 559.905 340.297C563.153 340.297 569.058 348.57 578.802 361.867C589.136 376.05 604.786 397.916 627.226 423.033C640.218 437.511 666.201 475.629 663.544 499.564C662.954 506.064 660.001 511.087 655.572 514.338C651.438 517.588 645.828 519.361 639.332 519.361Z" fill="url(#paint28_radial_142_954)"/>
<path d="M917.179 256.675C914.227 302.771 927.514 334.683 940.801 349.162C947.002 355.663 953.793 359.209 959.698 359.209C968.261 359.209 974.757 352.412 978.005 340.297C998.083 261.107 929.581 177.78 921.018 170.688C918.656 168.62 916.884 168.325 915.703 169.506C913.636 171.575 914.227 178.667 915.408 191.668C916.884 206.738 918.951 229.786 917.179 256.675ZM916.884 170.688C917.179 170.393 917.179 170.393 917.475 170.393C917.77 170.393 918.656 170.688 920.132 171.87C928.4 178.667 996.607 261.403 976.528 339.706C973.576 351.23 967.67 357.731 959.698 357.731C954.088 357.731 947.592 354.185 941.687 347.98C928.4 333.797 915.408 302.475 918.36 256.675C920.132 229.49 918.065 206.738 916.884 191.372C915.998 180.439 915.408 172.166 916.884 170.688Z" fill="url(#paint29_radial_142_954)"/>
<path d="M894.444 254.016C890.901 298.929 899.759 335.274 919.247 356.254C929.581 367.187 941.982 373.392 954.384 373.392C972.395 373.392 986.568 360.982 990.702 341.775C1003.1 285.633 983.911 234.809 965.604 202.306C944.049 164.188 916.589 137.003 903.302 128.139C898.578 124.888 895.035 122.82 892.968 122.82C892.082 122.82 891.491 123.115 891.196 123.706C889.425 125.775 890.31 131.093 891.491 142.026C894.149 160.938 898.578 196.987 894.444 254.016ZM891.787 124.002C892.082 123.706 892.377 123.411 892.968 123.411C894.739 123.411 898.283 125.479 902.712 128.434C932.534 148.527 1012.26 239.537 989.816 341.184C985.682 360.095 971.805 372.21 954.088 372.21C941.687 372.21 929.581 366.3 919.542 355.367C900.349 334.388 891.491 298.338 894.739 254.016C899.168 196.987 894.444 160.937 892.082 141.731C891.196 131.684 890.606 125.775 891.787 124.002Z" fill="url(#paint30_radial_142_954)"/>
<path d="M877.319 256.971C873.776 312.818 884.7 356.846 907.436 381.075C919.247 393.486 933.42 400.282 948.774 400.282C978.005 400.282 1002.81 376.643 1010.49 341.48C1021.71 289.475 1011.96 238.356 981.844 189.6C951.136 139.959 908.617 108.046 885.882 93.272C874.366 85.8849 869.347 82.6345 867.575 84.9984C866.099 86.7713 866.984 92.3856 869.051 103.023C873.185 125.775 882.338 173.94 877.319 256.971ZM868.165 85.2939C868.461 84.9984 868.756 84.9984 869.347 84.9984C871.709 84.9984 877.024 88.2488 885.586 93.863C960.88 142.914 1033.22 233.628 1009.89 341.185C1002.22 376.052 978.005 399.396 949.069 399.396C934.01 399.396 919.838 392.895 908.322 380.484C885.586 356.55 875.252 312.523 878.5 256.971C883.519 173.94 874.366 125.775 869.937 102.432C867.87 92.681 866.689 86.7713 868.165 85.2939Z" fill="url(#paint31_radial_142_954)"/>
<path d="M537.464 71.4042C545.732 71.4042 551.932 63.4261 558.133 51.3112C569.353 30.0362 592.68 19.9897 605.376 14.3754C611.872 11.716 614.234 10.5341 613.939 8.76121C613.644 7.28378 612.167 6.69282 603.309 6.10185C577.03 4.32893 518.567 29.1497 511.776 48.0609C510.3 52.4931 511.481 56.3344 515.024 59.5848C525.063 67.8584 531.854 71.4042 537.464 71.4042ZM513.548 48.9473C519.748 31.8091 574.373 8.17024 600.357 8.17024C601.242 8.17024 602.128 8.17024 603.014 8.17024C608.033 8.46573 610.396 8.76122 611.281 9.05671C610.1 9.94317 607.148 11.1251 604.49 12.307C591.794 17.9213 567.877 28.2633 556.361 50.1292C548.98 63.7216 543.665 69.3358 537.464 69.3358C532.149 69.3358 525.949 65.79 516.205 57.8119C513.252 55.448 512.366 52.4932 513.548 48.9473Z" fill="url(#paint32_radial_142_954)"/>
<path d="M563.153 70.5183C583.232 33.878 620.14 21.1721 649.667 14.0805C652.62 13.4895 652.915 12.0121 652.62 11.1256C652.029 5.21588 623.979 -6.30811 582.346 -6.30811C577.622 -6.30811 572.897 -6.30809 568.173 -6.0126C549.276 -4.83066 504.395 21.7631 488.155 41.2652C484.021 46.2884 481.955 50.7207 482.545 53.9711C483.726 62.2447 490.813 65.7905 499.375 69.9273C508.233 74.3596 518.273 79.3828 523.292 91.2023C526.245 97.9985 529.788 101.544 534.512 101.544C542.485 101.249 551.933 90.9068 563.153 70.5183ZM524.768 90.6113C519.749 78.4964 509.414 73.1777 500.261 68.7454C492.289 64.6086 485.202 61.3582 484.317 53.9711C484.021 51.3117 485.793 47.1749 489.632 42.4471C505.576 22.945 549.866 -3.05772 568.468 -4.23967C573.193 -4.53515 577.917 -4.53517 582.641 -4.53517C623.388 -4.53517 650.848 6.69328 651.439 11.4211C651.439 12.3075 650.258 12.603 649.667 12.8985C619.55 19.9902 582.346 32.9916 561.972 70.2228C544.847 100.658 532.15 108.045 524.768 90.6113Z" fill="url(#paint33_radial_142_954)"/>
<path d="M951.727 323.751C953.203 323.751 954.679 322.569 955.86 320.501C961.471 309.568 961.47 272.337 946.117 249.584C944.05 246.629 941.392 246.925 939.03 250.766C933.42 260.517 930.763 292.134 946.412 319.319C948.183 322.274 949.955 323.751 951.727 323.751ZM940.802 251.948C941.688 250.766 942.278 249.88 942.869 249.88C943.459 249.88 944.05 250.471 944.05 251.062C958.518 272.928 959.108 309.568 953.498 319.91C952.908 321.387 952.022 321.978 951.136 321.978C950.25 321.978 949.069 320.796 947.888 318.728C933.42 292.134 935.487 261.108 940.802 251.948Z" fill="url(#paint34_radial_142_954)"/>
<path d="M1143.65 414.463C1145.72 417.418 1151.03 418.895 1160.78 418.895C1166.98 418.895 1174.36 418.304 1182.92 417.713C1193.55 417.122 1205.66 416.236 1218.06 416.236C1257.62 416.236 1284.2 424.509 1301.91 442.83C1318.45 455.536 1327.6 476.22 1335.58 494.54C1345.32 516.701 1353.88 535.908 1372.48 535.908C1374.55 535.908 1376.62 535.612 1378.68 535.317C1380.16 535.021 1381.64 534.726 1383.11 534.135V532.657C1381.34 533.248 1379.87 533.544 1378.39 533.839C1376.32 534.135 1374.26 534.43 1372.48 534.43C1354.77 534.43 1346.5 515.519 1337.05 493.949C1329.08 475.629 1319.63 454.649 1303.1 441.648C1285.08 423.328 1258.21 414.758 1218.35 414.758C1205.95 414.758 1193.85 415.645 1183.22 416.236C1174.65 416.827 1167.27 417.418 1161.07 417.418C1151.92 417.418 1146.9 416.236 1145.13 413.577C1144.24 412.099 1144.24 410.326 1145.13 407.962C1164.02 357.73 1179.67 294.2 1178.2 274.403C1175.54 240.126 1160.48 207.623 1146.01 176.301C1128.3 137.888 1111.47 101.839 1122.1 71.6992C1136.86 29.7402 1204.77 -43.2449 1241.68 -48.2681C1243.45 -48.5636 1245.52 -48.5636 1247.59 -48.5636C1276.23 -48.5636 1326.72 -28.1751 1384 5.80582V4.03289C1327.01 -29.6525 1276.52 -50.041 1247.59 -50.041C1245.52 -50.041 1243.45 -50.041 1241.38 -49.7456C1204.18 -44.7223 1135.68 28.8538 1120.62 71.1083C1109.69 101.839 1126.82 138.479 1144.54 176.892C1159 208.214 1174.06 240.422 1176.72 274.403C1178.2 291.541 1164.02 353.297 1143.95 407.371C1142.47 410.326 1142.47 412.69 1143.65 414.463Z" fill="url(#paint35_radial_142_954)"/>
<path d="M1188.24 376.051C1193.85 384.029 1205.36 384.916 1221.31 386.098C1223.08 386.098 1224.85 386.393 1226.62 386.393C1231.64 386.688 1236.96 386.984 1242.57 387.279C1268.55 388.166 1298.37 389.052 1324.95 413.578L1325.24 413.873C1340 426.875 1348.86 449.627 1356.54 470.016C1364.51 490.404 1371.01 507.838 1381.93 507.838C1382.23 507.838 1382.52 507.838 1382.82 507.838V506.951C1382.52 506.951 1382.23 506.951 1381.93 506.951C1371.89 506.951 1365.1 489.518 1357.43 469.72C1349.75 449.331 1340.89 426.579 1325.83 413.282L1325.54 412.987C1298.67 388.461 1268.84 387.279 1242.57 386.393C1236.96 386.097 1231.64 386.097 1226.62 385.507C1224.85 385.211 1223.08 385.211 1221.31 385.211C1205.36 384.029 1194.14 383.143 1188.83 375.46C1183.81 368.368 1184.69 354.776 1191.19 332.024C1197.39 310.749 1199.46 291.542 1197.98 272.926C1195.03 234.809 1179.08 200.828 1163.73 167.733C1147.78 133.162 1132.73 100.658 1140.4 78.4966C1153.69 41.2654 1217.17 -24.3325 1243.45 -27.8783C1244.04 -27.8783 1244.93 -28.1738 1246.7 -28.1738C1268.84 -28.1738 1318.45 -9.85369 1383.11 29.7414V28.5595C1318.75 -11.0357 1268.84 -29.0603 1246.7 -29.0603C1245.22 -29.0603 1244.04 -29.0603 1243.45 -28.7648C1216.88 -25.219 1152.8 40.9699 1139.52 78.2011C1131.54 100.954 1146.6 133.457 1162.84 168.324C1178.2 201.123 1193.85 235.4 1196.8 273.222C1198.28 291.837 1195.91 311.044 1190.01 332.024C1183.81 355.367 1183.22 368.368 1188.24 376.051Z" fill="url(#paint36_radial_142_954)"/>
<path d="M649.962 643.169C693.957 638.146 746.219 585.845 760.392 545.954C784.9 476.515 741.495 420.668 699.567 366.594C659.115 314.589 621.025 265.243 639.627 205.259C655.867 152.958 708.13 124.887 749.172 124.887C771.317 124.887 790.214 132.865 802.911 147.048C817.97 163.891 823.875 189.598 820.037 221.215C806.749 329.954 802.911 449.035 924.266 484.198C938.144 488.334 952.022 490.403 965.013 490.403C1016.09 490.403 1048.57 461.15 1066.88 436.624C1102.02 389.642 1114.12 319.021 1097.29 261.401C1082.83 212.351 1054.48 165.073 1010.48 116.318C945.23 43.9235 856.355 -18.424 738.542 -73.9754L733.523 -76.3393C683.918 -99.6827 632.836 -123.913 579.097 -137.209C575.849 -138.096 572.306 -138.982 568.468 -139.869C551.933 -144.301 530.969 -149.915 513.252 -149.915C506.166 -149.915 499.965 -149.029 494.946 -147.256C487.269 -144.597 482.84 -139.278 478.706 -134.255C475.458 -130.413 472.505 -126.572 467.781 -123.617C464.828 -121.844 458.923 -119.48 452.722 -117.116C442.683 -113.275 432.349 -109.138 429.101 -105.592C422.9 -98.2052 424.672 -93.7729 426.148 -89.3406C427.329 -86.3858 428.51 -83.4309 427.034 -78.9986L425.853 -75.4528C416.995 -49.1546 416.995 -49.1546 396.326 -43.2449C392.487 -42.0629 387.468 -40.5855 381.563 -38.8126C364.437 -33.4938 357.646 -24.9247 350.855 -16.9466C345.54 -10.7414 340.816 -4.83166 331.662 -0.10388C331.367 -0.10388 331.072 -0.10388 330.776 -0.10388C320.147 -0.10388 239.538 5.21487 233.338 25.0124C231.566 30.3312 235.405 36.2409 243.967 42.1506C254.892 49.8333 263.455 50.7197 268.77 50.7197C271.427 50.7197 273.79 50.4242 275.856 50.1287C277.923 49.8333 279.695 49.8332 281.466 49.8332C287.962 49.8332 294.458 51.6062 303.612 73.7676C305.679 79.0864 307.45 83.8142 308.926 87.36C316.013 105.68 316.013 105.976 333.729 113.363C338.158 115.136 343.473 117.5 350.559 120.75C373.295 131.387 378.019 143.207 383.925 158.277C387.173 166.255 390.716 175.415 397.212 185.461C404.298 196.394 412.861 205.259 420.833 213.533C435.301 228.602 448.884 242.786 453.313 266.425C460.695 307.497 438.549 346.797 413.452 383.142C401.346 400.871 376.248 421.259 349.378 442.83C304.202 479.765 253.121 521.429 252.825 560.138C252.825 582.299 258.436 599.142 269.656 610.37C282.057 622.781 300.659 628.69 326.643 628.69C364.437 628.69 411.089 615.985 452.132 604.756C484.611 595.891 512.367 588.209 530.378 588.209C534.512 588.209 537.76 588.504 540.417 589.391C557.543 594.414 571.42 605.347 584.412 615.985C601.833 629.872 618.368 643.169 642.285 643.169C644.942 643.76 647.6 643.465 649.962 643.169ZM541.303 587.618C538.35 586.731 534.807 586.436 530.673 586.436C512.662 586.436 484.611 594.119 452.132 602.983C411.089 614.212 364.732 626.918 327.233 626.918C301.545 626.918 283.533 621.008 271.723 609.188C260.798 598.255 255.483 581.708 255.483 560.433C255.778 522.611 306.564 481.243 351.15 444.898C377.724 423.032 403.117 402.644 415.518 384.619C440.912 347.979 463.352 308.384 455.97 266.425C451.541 242.195 437.664 227.716 422.9 212.351C414.928 204.077 406.365 195.212 399.279 184.575C392.783 174.528 389.24 165.664 385.992 157.686C379.791 142.025 375.067 129.91 351.445 118.977C344.359 115.727 339.044 113.363 334.615 111.59C317.489 104.203 317.489 104.203 310.698 86.769C309.222 82.9277 307.45 78.4954 305.383 73.1767C296.82 51.9017 290.029 47.7648 281.466 47.7648C279.695 47.7648 277.628 48.0604 275.856 48.0604C273.494 48.3558 271.427 48.3558 268.77 48.3558C263.16 48.3558 255.778 47.4694 245.148 40.0822C237.176 34.468 233.928 29.4447 235.109 25.0124C240.424 7.87424 315.718 1.37355 330.481 1.37355C330.776 1.37355 331.072 1.37355 331.072 1.37355L331.367 0.487083L331.957 1.37355C341.701 -3.64971 347.016 -9.8549 352.331 -16.0601C359.122 -24.3337 365.618 -32.0164 382.153 -37.3351C388.058 -39.1081 393.078 -40.5855 396.917 -41.7674C418.471 -47.9726 418.766 -48.2681 427.92 -75.4528L429.101 -78.9986C430.872 -84.0219 429.396 -87.5677 428.215 -90.8181C426.739 -94.9549 425.262 -98.5007 430.872 -104.706C433.825 -108.252 444.455 -112.093 453.608 -115.639C459.809 -118.003 465.714 -120.367 468.962 -122.14C473.982 -125.094 477.23 -129.231 480.478 -133.073C484.611 -138.096 488.745 -142.824 495.832 -145.483C500.556 -147.256 506.461 -148.142 513.548 -148.142C530.968 -148.142 551.637 -142.528 568.172 -138.391C572.011 -137.505 575.554 -136.323 578.802 -135.732C632.541 -122.435 683.622 -98.2052 732.932 -74.8619L737.952 -72.498C855.469 -16.9466 944.049 45.1055 1009.01 117.204C1052.71 165.664 1081.05 212.942 1095.23 261.401C1112.06 318.43 1099.95 388.165 1065.11 434.852C1047.1 459.081 1014.91 487.744 964.718 487.744C951.726 487.744 938.144 485.675 924.562 481.834C804.978 447.262 808.816 329.068 821.808 221.215C825.647 189.007 819.741 162.709 804.387 145.275C791.395 130.501 771.612 122.523 749.172 122.523C707.539 122.523 654.391 151.185 637.856 204.372C618.959 265.243 659.41 317.248 698.386 367.481C740.019 420.964 782.833 476.515 758.916 544.772C745.038 584.072 693.662 635.782 650.257 640.51C647.895 640.805 645.533 640.805 643.171 640.805C620.14 640.805 603.9 627.804 586.774 613.916C572.897 604.165 559.019 592.937 541.303 587.618Z" fill="url(#paint37_radial_142_954)"/>
<path d="M919.838 -207.535C909.799 -200.443 896.216 -196.897 877.91 -196.897C856.65 -196.897 832.734 -201.625 811.474 -205.762C799.073 -208.126 787.262 -210.49 777.814 -211.672C773.089 -212.263 760.393 -213.445 745.039 -213.445C716.398 -213.445 679.489 -209.603 667.088 -190.988C661.773 -183.009 661.478 -172.667 666.497 -160.848C668.86 -155.234 674.765 -152.279 680.67 -149.324C685.395 -146.96 690.119 -144.596 692.776 -141.05C696.024 -136.914 697.796 -130.708 699.567 -125.094C701.93 -117.412 704.292 -109.433 709.902 -104.706C716.693 -98.796 724.37 -96.1366 733.819 -96.1366C740.315 -96.1366 747.106 -97.3186 753.602 -98.796C760.098 -99.9779 766.594 -101.455 772.794 -101.455C778.995 -101.455 784.31 -100.273 789.034 -97.614C800.845 -91.7043 805.569 -83.4307 810.589 -75.4526C816.789 -65.1106 822.695 -55.3595 842.182 -50.9272C882.634 -41.4717 893.854 -31.4252 920.724 -7.49078C924.267 -4.53592 927.81 -0.990109 931.944 2.55572C941.688 11.1248 948.774 20.8759 955.565 30.0359C961.766 38.3095 967.967 47.1741 976.234 54.8568C986.273 64.6078 995.722 68.7446 1004.88 73.1769C1016.98 78.7911 1028.79 84.1099 1039.13 102.135L1040.9 105.089C1054.19 127.842 1067.47 149.117 1075.74 149.117C1076.92 149.117 1078.1 148.526 1078.99 147.639C1081.94 144.389 1082.83 135.82 1081.35 121.341C1080.46 112.772 1074.56 105.385 1068.65 97.9977C1062.16 90.0196 1056.25 82.6324 1056.55 74.3588C1056.84 64.6078 1063.04 59.5845 1069.24 54.5613C1073.97 50.72 1078.69 46.8786 1081.35 40.9689C1088.14 26.4901 1089.62 13.4887 1091.39 0.782834C1093.46 -16.6508 1095.52 -33.1981 1111.17 -51.8137C1139.22 -85.2036 1178.49 -110.615 1221.6 -123.026C1236.07 -127.163 1249.36 -129.231 1262.35 -129.231C1306.64 -129.231 1338.23 -105.297 1371.89 -79.5894C1375.73 -76.6345 1379.57 -73.6797 1383.41 -71.0203V-73.9751C1379.87 -76.6345 1376.62 -79.2939 1373.08 -81.6578C1339.12 -107.365 1307.23 -131.595 1262.35 -131.595C1249.06 -131.595 1235.48 -129.527 1221.01 -125.39C1177.31 -112.979 1137.75 -87.272 1109.4 -53.5866C1093.46 -34.38 1091.39 -17.5373 1089.03 0.191871C1087.55 12.6023 1085.78 25.3081 1079.28 39.4915C1076.63 45.1057 1072.2 48.9471 1067.77 52.4929C1061.27 57.8116 1054.78 63.1304 1054.19 73.7679C1053.89 82.9279 1060.39 90.9061 1066.59 98.8842C1072.2 105.976 1078.1 113.363 1078.99 121.046C1080.46 138.184 1078.69 143.798 1077.22 145.866C1076.63 146.457 1076.04 146.753 1075.44 146.753C1067.18 146.753 1050.05 116.613 1042.37 103.907L1040.6 100.953C1029.68 82.337 1017.87 77.0182 1005.47 71.404C996.313 67.2672 987.159 63.1304 977.415 53.6748C969.443 45.9922 962.947 37.4231 957.042 29.1495C949.955 19.6939 942.869 9.94289 933.125 1.3738C928.991 -2.17203 925.448 -5.42236 921.905 -8.67271C894.74 -32.9026 883.52 -42.9491 842.478 -52.4046C823.876 -56.8369 818.266 -65.997 812.36 -76.0435C807.341 -84.3171 802.321 -92.5908 790.215 -98.796C785.195 -101.455 779.585 -102.637 773.089 -102.637C766.594 -102.637 759.802 -101.455 753.306 -99.9779C746.811 -98.796 740.315 -97.3186 734.114 -97.3186C725.256 -97.3186 718.169 -99.9779 711.378 -105.297C706.359 -109.729 703.997 -117.116 701.634 -124.799C699.863 -130.708 697.796 -136.914 694.548 -141.346C691.595 -145.483 686.576 -147.847 681.851 -150.211C676.241 -153.165 670.631 -155.825 668.564 -160.848C663.84 -172.077 664.135 -181.532 669.155 -189.215C680.966 -206.944 717.284 -210.785 745.629 -210.785C760.983 -210.785 773.68 -209.603 778.109 -209.012C787.558 -208.126 799.368 -205.762 811.77 -203.103C833.029 -198.966 856.946 -193.942 878.5 -193.942C897.102 -193.942 911.275 -197.488 921.61 -204.875C947.593 -223.196 939.916 -250.676 932.83 -277.27C925.153 -305.636 917.181 -335.185 949.07 -354.391C952.908 -356.755 957.928 -357.937 964.128 -357.937C983.025 -357.937 1009.89 -347.595 1035.88 -337.549C1058.32 -328.684 1079.87 -320.41 1093.75 -320.115C1095.82 -320.115 1097.88 -320.115 1099.66 -320.115C1129.48 -320.115 1159.6 -325.138 1188.83 -330.162C1218.06 -335.185 1248.18 -340.208 1277.7 -340.208C1298.37 -340.208 1317.27 -337.844 1334.99 -332.525C1351.52 -327.798 1367.76 -321.592 1383.71 -314.501V-316.865C1367.76 -323.956 1351.82 -329.866 1335.58 -334.594C1317.56 -339.617 1298.67 -342.276 1277.7 -342.276C1247.88 -342.276 1217.76 -337.253 1188.53 -332.23C1159.6 -327.207 1129.48 -322.183 1099.66 -322.183C1097.59 -322.183 1095.82 -322.183 1093.75 -322.183C1080.17 -322.479 1059.2 -330.752 1036.76 -339.322C1010.78 -349.368 983.616 -360.006 964.128 -360.006C957.337 -360.006 952.022 -358.824 947.888 -356.164C914.818 -336.071 922.791 -305.932 930.763 -276.679C937.554 -250.676 944.345 -224.968 919.838 -207.535Z" fill="url(#paint38_radial_142_954)"/>
</g>
</g>
<defs>
<filter id="filter0_d_142_954" x="0" y="0.0273438" width="1366" height="464" filterUnits="userSpaceOnUse" color-interpolation-filters="sRGB">
<feFlood flood-opacity="0" result="BackgroundImageFix"/>
<feColorMatrix in="SourceAlpha" type="matrix" values="0 0 0 0 0 0 0 0 0 0 0 0 0 0 0 0 0 0 127 0" result="hardAlpha"/>
<feOffset/>
<feGaussianBlur stdDeviation="25"/>
<feComposite in2="hardAlpha" operator="out"/>
<feColorMatrix type="matrix" values="0 0 0 0 0 0 0 0 0 0 0 0 0 0 0 0 0 0 0.15 0"/>
<feBlend mode="normal" in2="BackgroundImageFix" result="effect1_dropShadow_142_954"/>
<feBlend mode="normal" in="SourceGraphic" in2="effect1_dropShadow_142_954" result="shape"/>
</filter>
<radialGradient id="paint0_radial_142_954" cx="0" cy="0" r="1" gradientUnits="userSpaceOnUse" gradientTransform="translate(123.831 251.653) rotate(90) scale(198.567 69.4267)">
<stop stop-color="white" stop-opacity="0.42"/>
<stop offset="1" stop-color="white" stop-opacity="0"/>
</radialGradient>
<radialGradient id="paint1_radial_142_954" cx="0" cy="0" r="1" gradientUnits="userSpaceOnUse" gradientTransform="translate(138.896 268.2) rotate(90) scale(239.344 84.1954)">
<stop stop-color="white" stop-opacity="0.42"/>
<stop offset="1" stop-color="white" stop-opacity="0"/>
</radialGradient>
<radialGradient id="paint2_radial_142_954" cx="0" cy="0" r="1" gradientUnits="userSpaceOnUse" gradientTransform="translate(93.2221 208.953) rotate(90) scale(106.523 38.5219)">
<stop stop-color="white" stop-opacity="0.42"/>
<stop offset="1" stop-color="white" stop-opacity="0"/>
</radialGradient>
<radialGradient id="paint3_radial_142_954" cx="0" cy="0" r="1" gradientUnits="userSpaceOnUse" gradientTransform="translate(109.741 221.808) rotate(90) scale(145.084 55.0406)">
<stop stop-color="white" stop-opacity="0.42"/>
<stop offset="1" stop-color="white" stop-opacity="0"/>
</radialGradient>
<radialGradient id="paint4_radial_142_954" cx="0" cy="0" r="1" gradientUnits="userSpaceOnUse" gradientTransform="translate(295.656 341.48) rotate(90) scale(86.2819 74.4486)">
<stop stop-color="white" stop-opacity="0.42"/>
<stop offset="1" stop-color="white" stop-opacity="0"/>
</radialGradient>
<radialGradient id="paint5_radial_142_954" cx="0" cy="0" r="1" gradientUnits="userSpaceOnUse" gradientTransform="translate(151.606 268.936) rotate(90) scale(264.903 96.9056)">
<stop stop-color="white" stop-opacity="0.42"/>
<stop offset="1" stop-color="white" stop-opacity="0"/>
</radialGradient>
<radialGradient id="paint6_radial_142_954" cx="0" cy="0" r="1" gradientUnits="userSpaceOnUse" gradientTransform="translate(288.544 388.366) rotate(90) scale(161.135 102.45)">
<stop stop-color="white" stop-opacity="0.42"/>
<stop offset="1" stop-color="white" stop-opacity="0"/>
</radialGradient>
<radialGradient id="paint7_radial_142_954" cx="0" cy="0" r="1" gradientUnits="userSpaceOnUse" gradientTransform="translate(289.509 340.002) rotate(90) scale(267.119 130.511)">
<stop stop-color="white" stop-opacity="0.42"/>
<stop offset="1" stop-color="white" stop-opacity="0"/>
</radialGradient>
<radialGradient id="paint8_radial_142_954" cx="0" cy="0" r="1" gradientUnits="userSpaceOnUse" gradientTransform="translate(169.934 267.313) rotate(90) scale(297.259 115.529)">
<stop stop-color="white" stop-opacity="0.42"/>
<stop offset="1" stop-color="white" stop-opacity="0"/>
</radialGradient>
<radialGradient id="paint9_radial_142_954" cx="0" cy="0" r="1" gradientUnits="userSpaceOnUse" gradientTransform="translate(68.6181 195.509) rotate(90) scale(42.8455 13.9179)">
<stop stop-color="white" stop-opacity="0.42"/>
<stop offset="1" stop-color="white" stop-opacity="0"/>
</radialGradient>
<radialGradient id="paint10_radial_142_954" cx="0" cy="0" r="1" gradientUnits="userSpaceOnUse" gradientTransform="translate(82.928 200.089) rotate(90) scale(72.2463 28.2278)">
<stop stop-color="white" stop-opacity="0.42"/>
<stop offset="1" stop-color="white" stop-opacity="0"/>
</radialGradient>
<radialGradient id="paint11_radial_142_954" cx="0" cy="0" r="1" gradientUnits="userSpaceOnUse" gradientTransform="translate(325.113 327.149) rotate(90) scale(22.0137 19.0243)">
<stop stop-color="white" stop-opacity="0.42"/>
<stop offset="1" stop-color="white" stop-opacity="0"/>
</radialGradient>
<radialGradient id="paint12_radial_142_954" cx="0" cy="0" r="1" gradientUnits="userSpaceOnUse" gradientTransform="translate(688.374 251.503) rotate(90) scale(353.844 382.736)">
<stop stop-color="white" stop-opacity="0.42"/>
<stop offset="1" stop-color="white" stop-opacity="0"/>
</radialGradient>
<radialGradient id="paint13_radial_142_954" cx="0" cy="0" r="1" gradientUnits="userSpaceOnUse" gradientTransform="translate(1330.76 189.157) rotate(90) scale(71.6553 49.9386)">
<stop stop-color="white" stop-opacity="0.42"/>
<stop offset="1" stop-color="white" stop-opacity="0"/>
</radialGradient>
<radialGradient id="paint14_radial_142_954" cx="0" cy="0" r="1" gradientUnits="userSpaceOnUse" gradientTransform="translate(1311.02 192.702) rotate(90) scale(128.684 72.6855)">
<stop stop-color="white" stop-opacity="0.42"/>
<stop offset="1" stop-color="white" stop-opacity="0"/>
</radialGradient>
<radialGradient id="paint15_radial_142_954" cx="0" cy="0" r="1" gradientUnits="userSpaceOnUse" gradientTransform="translate(1321.65 191.078) rotate(90) scale(102.534 61.4602)">
<stop stop-color="white" stop-opacity="0.42"/>
<stop offset="1" stop-color="white" stop-opacity="0"/>
</radialGradient>
<radialGradient id="paint16_radial_142_954" cx="0" cy="0" r="1" gradientUnits="userSpaceOnUse" gradientTransform="translate(1270.95 222.251) rotate(90) scale(228.263 112.463)">
<stop stop-color="white" stop-opacity="0.42"/>
<stop offset="1" stop-color="white" stop-opacity="0"/>
</radialGradient>
<radialGradient id="paint17_radial_142_954" cx="0" cy="0" r="1" gradientUnits="userSpaceOnUse" gradientTransform="translate(1298.28 196.692) rotate(90) scale(153.948 85.1282)">
<stop stop-color="white" stop-opacity="0.42"/>
<stop offset="1" stop-color="white" stop-opacity="0"/>
</radialGradient>
<radialGradient id="paint18_radial_142_954" cx="0" cy="0" r="1" gradientUnits="userSpaceOnUse" gradientTransform="translate(1282.94 203.191) rotate(90) scale(188.225 101.06)">
<stop stop-color="white" stop-opacity="0.42"/>
<stop offset="1" stop-color="white" stop-opacity="0"/>
</radialGradient>
<radialGradient id="paint19_radial_142_954" cx="0" cy="0" r="1" gradientUnits="userSpaceOnUse" gradientTransform="translate(957.622 487.744) rotate(90) scale(323.557 341.979)">
<stop stop-color="white" stop-opacity="0.42"/>
<stop offset="1" stop-color="white" stop-opacity="0"/>
</radialGradient>
<radialGradient id="paint20_radial_142_954" cx="0" cy="0" r="1" gradientUnits="userSpaceOnUse" gradientTransform="translate(1233.27 244.558) rotate(90) scale(324.148 150.139)">
<stop stop-color="white" stop-opacity="0.42"/>
<stop offset="1" stop-color="white" stop-opacity="0"/>
</radialGradient>
<radialGradient id="paint21_radial_142_954" cx="0" cy="0" r="1" gradientUnits="userSpaceOnUse" gradientTransform="translate(972.652 482.723) rotate(90) scale(298.145 305.895)">
<stop stop-color="white" stop-opacity="0.42"/>
<stop offset="1" stop-color="white" stop-opacity="0"/>
</radialGradient>
<radialGradient id="paint22_radial_142_954" cx="0" cy="0" r="1" gradientUnits="userSpaceOnUse" gradientTransform="translate(728.809 258.3) rotate(90) scale(53.3352 27.3536)">
<stop stop-color="white" stop-opacity="0.42"/>
<stop offset="1" stop-color="white" stop-opacity="0"/>
</radialGradient>
<radialGradient id="paint23_radial_142_954" cx="0" cy="0" r="1" gradientUnits="userSpaceOnUse" gradientTransform="translate(580.412 445.343) rotate(90) scale(52.7443 61.7802)">
<stop stop-color="white" stop-opacity="0.42"/>
<stop offset="1" stop-color="white" stop-opacity="0"/>
</radialGradient>
<radialGradient id="paint24_radial_142_954" cx="0" cy="0" r="1" gradientUnits="userSpaceOnUse" gradientTransform="translate(581.684 63.2791) rotate(90) scale(88.7935 125.163)">
<stop stop-color="white" stop-opacity="0.42"/>
<stop offset="1" stop-color="white" stop-opacity="0"/>
</radialGradient>
<radialGradient id="paint25_radial_142_954" cx="0" cy="0" r="1" gradientUnits="userSpaceOnUse" gradientTransform="translate(608.333 76.5754) rotate(90) scale(126.32 184.846)">
<stop stop-color="white" stop-opacity="0.42"/>
<stop offset="1" stop-color="white" stop-opacity="0"/>
</radialGradient>
<radialGradient id="paint26_radial_142_954" cx="0" cy="0" r="1" gradientUnits="userSpaceOnUse" gradientTransform="translate(700.789 251.122) rotate(90) scale(322.732 339.623)">
<stop stop-color="white" stop-opacity="0.42"/>
<stop offset="1" stop-color="white" stop-opacity="0"/>
</radialGradient>
<radialGradient id="paint27_radial_142_954" cx="0" cy="0" r="1" gradientUnits="userSpaceOnUse" gradientTransform="translate(556.967 391.134) rotate(90) scale(152.188 132.004)">
<stop stop-color="white" stop-opacity="0.42"/>
<stop offset="1" stop-color="white" stop-opacity="0"/>
</radialGradient>
<radialGradient id="paint28_radial_142_954" cx="0" cy="0" r="1" gradientUnits="userSpaceOnUse" gradientTransform="translate(567.529 430.124) rotate(90) scale(90.4187 97.3857)">
<stop stop-color="white" stop-opacity="0.42"/>
<stop offset="1" stop-color="white" stop-opacity="0"/>
</radialGradient>
<radialGradient id="paint29_radial_142_954" cx="0" cy="0" r="1" gradientUnits="userSpaceOnUse" gradientTransform="translate(948.004 264.012) rotate(90) scale(95.1967 33.6689)">
<stop stop-color="white" stop-opacity="0.42"/>
<stop offset="1" stop-color="white" stop-opacity="0"/>
</radialGradient>
<radialGradient id="paint30_radial_142_954" cx="0" cy="0" r="1" gradientUnits="userSpaceOnUse" gradientTransform="translate(942.42 248.106) rotate(90) scale(125.286 52.2254)">
<stop stop-color="white" stop-opacity="0.42"/>
<stop offset="1" stop-color="white" stop-opacity="0"/>
</radialGradient>
<radialGradient id="paint31_radial_142_954" cx="0" cy="0" r="1" gradientUnits="userSpaceOnUse" gradientTransform="translate(940.921 242.26) rotate(90) scale(158.022 74.0792)">
<stop stop-color="white" stop-opacity="0.42"/>
<stop offset="1" stop-color="white" stop-opacity="0"/>
</radialGradient>
<radialGradient id="paint32_radial_142_954" cx="0" cy="0" r="1" gradientUnits="userSpaceOnUse" gradientTransform="translate(562.559 38.7081) rotate(90) scale(32.6961 51.4045)">
<stop stop-color="white" stop-opacity="0.42"/>
<stop offset="1" stop-color="white" stop-opacity="0"/>
</radialGradient>
<radialGradient id="paint33_radial_142_954" cx="0" cy="0" r="1" gradientUnits="userSpaceOnUse" gradientTransform="translate(567.578 47.6181) rotate(90) scale(53.9262 85.1321)">
<stop stop-color="white" stop-opacity="0.42"/>
<stop offset="1" stop-color="white" stop-opacity="0"/>
</radialGradient>
<radialGradient id="paint34_radial_142_954" cx="0" cy="0" r="1" gradientUnits="userSpaceOnUse" gradientTransform="translate(946.969 285.674) rotate(90) scale(38.0774 12.3219)">
<stop stop-color="white" stop-opacity="0.42"/>
<stop offset="1" stop-color="white" stop-opacity="0"/>
</radialGradient>
<radialGradient id="paint35_radial_142_954" cx="0" cy="0" r="1" gradientUnits="userSpaceOnUse" gradientTransform="translate(1250.59 242.933) rotate(90) scale(292.974 133.405)">
<stop stop-color="white" stop-opacity="0.42"/>
<stop offset="1" stop-color="white" stop-opacity="0"/>
</radialGradient>
<radialGradient id="paint36_radial_142_954" cx="0" cy="0" r="1" gradientUnits="userSpaceOnUse" gradientTransform="translate(1260.22 239.389) rotate(90) scale(268.449 122.898)">
<stop stop-color="white" stop-opacity="0.42"/>
<stop offset="1" stop-color="white" stop-opacity="0"/>
</radialGradient>
<radialGradient id="paint37_radial_142_954" cx="0" cy="0" r="1" gradientUnits="userSpaceOnUse" gradientTransform="translate(668.851 246.798) rotate(90) scale(396.713 435.937)">
<stop stop-color="white" stop-opacity="0.42"/>
<stop offset="1" stop-color="white" stop-opacity="0"/>
</radialGradient>
<radialGradient id="paint38_radial_142_954" cx="0" cy="0" r="1" gradientUnits="userSpaceOnUse" gradientTransform="translate(1023.31 -105.444) rotate(90) scale(254.561 360.397)">
<stop stop-color="white" stop-opacity="0.42"/>
<stop offset="1" stop-color="white" stop-opacity="0"/>
</radialGradient>
</defs>
</svg>
