<svg width="115" height="25" viewBox="0 0 115 25" fill="none" xmlns="http://www.w3.org/2000/svg">
<path d="M37.8777 11.2424V15.5862C37.7163 15.7997 37.4637 16.0341 37.1199 16.2893C36.7814 16.5393 36.3309 16.7555 35.7684 16.9377C35.2059 17.12 34.5053 17.2112 33.6668 17.2112C32.9533 17.2112 32.2996 17.0914 31.7059 16.8518C31.1121 16.607 30.5991 16.2502 30.1668 15.7815C29.7397 15.3127 29.409 14.7424 29.1746 14.0706C28.9402 13.3935 28.823 12.6226 28.823 11.7581V10.969C28.823 10.1096 28.9298 9.34399 29.1434 8.67212C29.3621 7.99504 29.6746 7.42212 30.0809 6.95337C30.4871 6.48462 30.9767 6.13045 31.5496 5.89087C32.1277 5.64608 32.7814 5.52368 33.5105 5.52368C34.4428 5.52368 35.2137 5.67993 35.823 5.99243C36.4376 6.29972 36.9116 6.72681 37.2449 7.27368C37.5783 7.82056 37.7892 8.44556 37.8777 9.14868H35.9559C35.8934 8.75285 35.771 8.39868 35.5887 8.08618C35.4116 7.77368 35.1564 7.52889 34.823 7.35181C34.4949 7.16951 34.0678 7.07837 33.5418 7.07837C33.0887 7.07837 32.6902 7.16431 32.3465 7.33618C32.0027 7.50806 31.7163 7.76066 31.4871 8.09399C31.2632 8.42733 31.0939 8.83358 30.9793 9.31274C30.8647 9.79191 30.8074 10.3388 30.8074 10.9534V11.7581C30.8074 12.3831 30.8725 12.9377 31.0027 13.4221C31.1382 13.9065 31.3309 14.3153 31.5809 14.6487C31.8361 14.982 32.146 15.2346 32.5105 15.4065C32.8751 15.5732 33.2866 15.6565 33.7449 15.6565C34.1928 15.6565 34.56 15.62 34.8465 15.5471C35.1329 15.469 35.3595 15.3778 35.5262 15.2737C35.698 15.1643 35.8309 15.0601 35.9246 14.9612V12.7034H33.5574V11.2424H37.8777ZM39.6027 12.9221V12.7424C39.6027 12.1331 39.6913 11.568 39.8684 11.0471C40.0454 10.5211 40.3007 10.0653 40.634 9.67993C40.9725 9.28931 41.384 8.98722 41.8684 8.77368C42.3579 8.55493 42.91 8.44556 43.5246 8.44556C44.1444 8.44556 44.6965 8.55493 45.1809 8.77368C45.6704 8.98722 46.0845 9.28931 46.423 9.67993C46.7616 10.0653 47.0194 10.5211 47.1965 11.0471C47.3736 11.568 47.4621 12.1331 47.4621 12.7424V12.9221C47.4621 13.5315 47.3736 14.0966 47.1965 14.6174C47.0194 15.1383 46.7616 15.594 46.423 15.9846C46.0845 16.37 45.673 16.6721 45.1887 16.8909C44.7043 17.1044 44.1548 17.2112 43.5402 17.2112C42.9204 17.2112 42.3658 17.1044 41.8762 16.8909C41.3918 16.6721 40.9803 16.37 40.6418 15.9846C40.3033 15.594 40.0454 15.1383 39.8684 14.6174C39.6913 14.0966 39.6027 13.5315 39.6027 12.9221ZM41.4855 12.7424V12.9221C41.4855 13.3023 41.5246 13.6617 41.6027 14.0002C41.6809 14.3388 41.8033 14.6357 41.9699 14.8909C42.1366 15.1461 42.3501 15.3466 42.6105 15.4924C42.871 15.6383 43.1809 15.7112 43.5402 15.7112C43.8892 15.7112 44.1913 15.6383 44.4465 15.4924C44.7069 15.3466 44.9204 15.1461 45.0871 14.8909C45.2538 14.6357 45.3762 14.3388 45.4543 14.0002C45.5376 13.6617 45.5793 13.3023 45.5793 12.9221V12.7424C45.5793 12.3674 45.5376 12.0133 45.4543 11.6799C45.3762 11.3414 45.2512 11.0419 45.0793 10.7815C44.9126 10.5211 44.6991 10.318 44.4387 10.1721C44.1835 10.0211 43.8788 9.94556 43.5246 9.94556C43.1704 9.94556 42.8632 10.0211 42.6027 10.1721C42.3475 10.318 42.1366 10.5211 41.9699 10.7815C41.8033 11.0419 41.6809 11.3414 41.6027 11.6799C41.5246 12.0133 41.4855 12.3674 41.4855 12.7424ZM48.7809 12.9221V12.7424C48.7809 12.1331 48.8694 11.568 49.0465 11.0471C49.2236 10.5211 49.4788 10.0653 49.8121 9.67993C50.1507 9.28931 50.5621 8.98722 51.0465 8.77368C51.5361 8.55493 52.0882 8.44556 52.7027 8.44556C53.3225 8.44556 53.8746 8.55493 54.359 8.77368C54.8486 8.98722 55.2626 9.28931 55.6012 9.67993C55.9397 10.0653 56.1975 10.5211 56.3746 11.0471C56.5517 11.568 56.6402 12.1331 56.6402 12.7424V12.9221C56.6402 13.5315 56.5517 14.0966 56.3746 14.6174C56.1975 15.1383 55.9397 15.594 55.6012 15.9846C55.2626 16.37 54.8512 16.6721 54.3668 16.8909C53.8824 17.1044 53.3329 17.2112 52.7184 17.2112C52.0986 17.2112 51.5439 17.1044 51.0543 16.8909C50.5699 16.6721 50.1585 16.37 49.8199 15.9846C49.4814 15.594 49.2236 15.1383 49.0465 14.6174C48.8694 14.0966 48.7809 13.5315 48.7809 12.9221ZM50.6637 12.7424V12.9221C50.6637 13.3023 50.7027 13.6617 50.7809 14.0002C50.859 14.3388 50.9814 14.6357 51.148 14.8909C51.3147 15.1461 51.5283 15.3466 51.7887 15.4924C52.0491 15.6383 52.359 15.7112 52.7184 15.7112C53.0673 15.7112 53.3694 15.6383 53.6246 15.4924C53.885 15.3466 54.0986 15.1461 54.2652 14.8909C54.4319 14.6357 54.5543 14.3388 54.6324 14.0002C54.7158 13.6617 54.7574 13.3023 54.7574 12.9221V12.7424C54.7574 12.3674 54.7158 12.0133 54.6324 11.6799C54.5543 11.3414 54.4293 11.0419 54.2574 10.7815C54.0908 10.5211 53.8772 10.318 53.6168 10.1721C53.3616 10.0211 53.0569 9.94556 52.7027 9.94556C52.3486 9.94556 52.0413 10.0211 51.7809 10.1721C51.5257 10.318 51.3147 10.5211 51.148 10.7815C50.9814 11.0419 50.859 11.3414 50.7809 11.6799C50.7027 12.0133 50.6637 12.3674 50.6637 12.7424ZM63.7324 8.60181H65.4434V16.8206C65.4434 17.581 65.2819 18.2268 64.959 18.7581C64.6361 19.2893 64.1855 19.693 63.6074 19.969C63.0293 20.2502 62.36 20.3909 61.5996 20.3909C61.2767 20.3909 60.9173 20.344 60.5215 20.2502C60.1309 20.1565 59.7507 20.0055 59.3809 19.7971C59.0163 19.594 58.7116 19.3258 58.4668 18.9924L59.3496 17.8831C59.6517 18.2424 59.985 18.5055 60.3496 18.6721C60.7142 18.8388 61.097 18.9221 61.498 18.9221C61.9303 18.9221 62.2975 18.8414 62.5996 18.6799C62.9069 18.5237 63.1439 18.2919 63.3105 17.9846C63.4772 17.6773 63.5605 17.3023 63.5605 16.8596V10.5159L63.7324 8.60181ZM57.9902 12.9221V12.7581C57.9902 12.1174 58.0684 11.5341 58.2246 11.0081C58.3809 10.4768 58.6048 10.0211 58.8965 9.64087C59.1882 9.25545 59.5423 8.96118 59.959 8.75806C60.3757 8.54972 60.847 8.44556 61.373 8.44556C61.9199 8.44556 62.3861 8.54451 62.7715 8.74243C63.1621 8.94035 63.4876 9.2242 63.748 9.59399C64.0085 9.95858 64.2116 10.3961 64.3574 10.9065C64.5085 11.4117 64.6204 11.9742 64.6934 12.594V13.1174C64.6257 13.7216 64.5111 14.2737 64.3496 14.7737C64.1882 15.2737 63.9746 15.706 63.709 16.0706C63.4434 16.4351 63.1152 16.7164 62.7246 16.9143C62.3392 17.1122 61.8835 17.2112 61.3574 17.2112C60.8418 17.2112 60.3757 17.1044 59.959 16.8909C59.5475 16.6773 59.1934 16.3778 58.8965 15.9924C58.6048 15.607 58.3809 15.1539 58.2246 14.6331C58.0684 14.107 57.9902 13.5367 57.9902 12.9221ZM59.873 12.7581V12.9221C59.873 13.3075 59.9095 13.6669 59.9824 14.0002C60.0605 14.3336 60.1777 14.6278 60.334 14.8831C60.4954 15.1331 60.6986 15.331 60.9434 15.4768C61.1934 15.6174 61.4876 15.6877 61.8262 15.6877C62.2689 15.6877 62.6309 15.594 62.9121 15.4065C63.1986 15.219 63.4173 14.9664 63.5684 14.6487C63.7246 14.3258 63.834 13.9664 63.8965 13.5706V12.1565C63.8652 11.8492 63.8001 11.5627 63.7012 11.2971C63.6074 11.0315 63.4798 10.7997 63.3184 10.6018C63.1569 10.3987 62.9538 10.2424 62.709 10.1331C62.4642 10.0185 62.1751 9.96118 61.8418 9.96118C61.5033 9.96118 61.209 10.0341 60.959 10.1799C60.709 10.3258 60.5033 10.5263 60.3418 10.7815C60.1855 11.0367 60.0684 11.3336 59.9902 11.6721C59.9121 12.0107 59.873 12.3726 59.873 12.7581ZM69.5121 5.05493V17.0549H67.6215V5.05493H69.5121ZM75.4012 17.2112C74.7762 17.2112 74.2111 17.1096 73.7059 16.9065C73.2059 16.6982 72.7788 16.4091 72.4246 16.0393C72.0757 15.6695 71.8074 15.2346 71.6199 14.7346C71.4324 14.2346 71.3387 13.6956 71.3387 13.1174V12.8049C71.3387 12.1435 71.435 11.5445 71.6277 11.0081C71.8204 10.4716 72.0887 10.0133 72.4324 9.63306C72.7762 9.24764 73.1824 8.95337 73.6512 8.75024C74.1199 8.54712 74.6277 8.44556 75.1746 8.44556C75.7788 8.44556 76.3074 8.54712 76.7605 8.75024C77.2137 8.95337 77.5887 9.23983 77.8855 9.60962C78.1876 9.9742 78.4116 10.4091 78.5574 10.9143C78.7085 11.4195 78.784 11.9768 78.784 12.5862V13.3909H72.2527V12.0393H76.9246V11.8909C76.9142 11.5523 76.8465 11.2346 76.7215 10.9377C76.6017 10.6409 76.4168 10.4013 76.1668 10.219C75.9168 10.0367 75.5835 9.94556 75.1668 9.94556C74.8543 9.94556 74.5757 10.0133 74.3309 10.1487C74.0913 10.2789 73.8908 10.469 73.7293 10.719C73.5678 10.969 73.4428 11.2711 73.3543 11.6252C73.271 11.9742 73.2293 12.3674 73.2293 12.8049V13.1174C73.2293 13.4872 73.2788 13.831 73.3777 14.1487C73.4819 14.4612 73.6329 14.7346 73.8309 14.969C74.0288 15.2034 74.2684 15.3883 74.5496 15.5237C74.8309 15.6539 75.1512 15.719 75.5105 15.719C75.9637 15.719 76.3673 15.6278 76.7215 15.4456C77.0757 15.2633 77.3829 15.0055 77.6434 14.6721L78.6355 15.6331C78.4533 15.8987 78.2163 16.1539 77.9246 16.3987C77.6329 16.6383 77.2762 16.8336 76.8543 16.9846C76.4376 17.1357 75.9533 17.2112 75.4012 17.2112ZM88.9449 12.8127H85.984V11.2581H88.9449C89.4605 11.2581 89.8772 11.1747 90.1949 11.0081C90.5126 10.8414 90.7444 10.6122 90.8902 10.3206C91.0413 10.0237 91.1168 9.68514 91.1168 9.30493C91.1168 8.94556 91.0413 8.60962 90.8902 8.29712C90.7444 7.97941 90.5126 7.7242 90.1949 7.53149C89.8772 7.33879 89.4605 7.24243 88.9449 7.24243H86.5855V17.0549H84.6246V5.67993H88.9449C89.8251 5.67993 90.5725 5.83618 91.1871 6.14868C91.8069 6.45597 92.2783 6.88306 92.6012 7.42993C92.9241 7.9716 93.0855 8.59139 93.0855 9.28931C93.0855 10.0237 92.9241 10.6539 92.6012 11.1799C92.2783 11.706 91.8069 12.1096 91.1871 12.3909C90.5725 12.6721 89.8251 12.8127 88.9449 12.8127ZM96.7715 5.05493V17.0549H94.8809V5.05493H96.7715ZM103.7 15.3596V11.3284C103.7 11.0263 103.645 10.7659 103.536 10.5471C103.426 10.3284 103.26 10.1591 103.036 10.0393C102.817 9.91951 102.541 9.85962 102.207 9.85962C101.9 9.85962 101.635 9.9117 101.411 10.0159C101.187 10.12 101.012 10.2607 100.887 10.4377C100.762 10.6148 100.7 10.8153 100.7 11.0393H98.8246C98.8246 10.706 98.9053 10.3831 99.0668 10.0706C99.2283 9.75806 99.4626 9.47941 99.7699 9.23462C100.077 8.98983 100.444 8.79712 100.871 8.65649C101.299 8.51587 101.778 8.44556 102.309 8.44556C102.944 8.44556 103.507 8.55233 103.996 8.76587C104.491 8.97941 104.879 9.30233 105.161 9.73462C105.447 10.1617 105.59 10.6982 105.59 11.344V15.1018C105.59 15.4872 105.616 15.8336 105.668 16.1409C105.726 16.443 105.806 16.706 105.911 16.9299V17.0549H103.981C103.892 16.8518 103.822 16.594 103.77 16.2815C103.723 15.9638 103.7 15.6565 103.7 15.3596ZM103.973 11.9143L103.989 13.0784H102.637C102.288 13.0784 101.981 13.1122 101.715 13.1799C101.45 13.2424 101.228 13.3362 101.051 13.4612C100.874 13.5862 100.741 13.7372 100.653 13.9143C100.564 14.0914 100.52 14.2919 100.52 14.5159C100.52 14.7398 100.572 14.9456 100.676 15.1331C100.78 15.3153 100.931 15.4586 101.129 15.5627C101.332 15.6669 101.577 15.719 101.864 15.719C102.249 15.719 102.585 15.6409 102.871 15.4846C103.163 15.3232 103.392 15.1278 103.559 14.8987C103.726 14.6643 103.814 14.443 103.825 14.2346L104.434 15.0706C104.371 15.2841 104.265 15.5133 104.114 15.7581C103.963 16.0028 103.765 16.2372 103.52 16.4612C103.28 16.6799 102.991 16.8596 102.653 17.0002C102.319 17.1409 101.934 17.2112 101.496 17.2112C100.944 17.2112 100.452 17.1018 100.02 16.8831C99.5876 16.6591 99.2491 16.3596 99.0043 15.9846C98.7595 15.6044 98.6371 15.1747 98.6371 14.6956C98.6371 14.2476 98.7204 13.8518 98.8871 13.5081C99.059 13.1591 99.309 12.8674 99.6371 12.6331C99.9704 12.3987 100.377 12.2216 100.856 12.1018C101.335 11.9768 101.882 11.9143 102.496 11.9143H103.973ZM109.987 16.1331L112.284 8.60181H114.3L110.909 18.344C110.831 18.5523 110.729 18.7789 110.604 19.0237C110.479 19.2685 110.315 19.5002 110.112 19.719C109.914 19.943 109.667 20.1226 109.37 20.2581C109.073 20.3987 108.714 20.469 108.292 20.469C108.125 20.469 107.964 20.4534 107.807 20.4221C107.656 20.3961 107.513 20.3674 107.378 20.3362L107.37 18.8987C107.422 18.9039 107.485 18.9091 107.557 18.9143C107.636 18.9195 107.698 18.9221 107.745 18.9221C108.057 18.9221 108.318 18.8831 108.526 18.8049C108.735 18.732 108.904 18.6122 109.034 18.4456C109.169 18.2789 109.284 18.0549 109.378 17.7737L109.987 16.1331ZM108.69 8.60181L110.698 14.9299L111.034 16.9143L109.729 17.2502L106.659 8.60181H108.69Z" fill="#07232C"/>
<path d="M11.3842 8.24517L0.652515 2.11153C0.517662 2.03323 0.348008 2.03758 0.217505 2.11588C0.0826519 2.19418 0 2.33338 0 2.48999C0 2.48999 0.0043501 3.0555 0.0087002 3.98642L7.82583 11.8036L11.3842 8.24517Z" fill="url(#paint0_linear_142_1072)"/>
<path d="M0.00878906 3.98657C0.0218394 7.34485 0.0609903 15.4969 0.0783907 19.5556L7.83027 11.8037L0.00878906 3.98657Z" fill="url(#paint1_linear_142_1072)"/>
<path d="M17.5264 11.7559L11.384 8.24536L7.82129 11.8037L11.8408 15.8232L17.5307 12.5085C17.6656 12.4302 17.7482 12.2866 17.7482 12.1344C17.7482 11.9777 17.6612 11.8342 17.5264 11.7559Z" fill="url(#paint2_linear_142_1072)"/>
<path d="M0.0742188 19.5556C0.082919 21.0042 0.0872691 21.9308 0.0872691 21.9308C0.0872691 22.0874 0.169921 22.2309 0.304774 22.3049C0.439627 22.3832 0.604931 22.3832 0.739784 22.3049L11.8456 15.8276L7.8261 11.8081L0.0742188 19.5556Z" fill="url(#paint3_linear_142_1072)"/>
<defs>
<linearGradient id="paint0_linear_142_1072" x1="0" y1="6.93118" x2="11.3862" y2="6.93118" gradientUnits="userSpaceOnUse">
<stop stop-color="#63BE6B"/>
<stop offset="0.506" stop-color="#5BBC6A"/>
<stop offset="1" stop-color="#4AB96A"/>
</linearGradient>
<linearGradient id="paint1_linear_142_1072" x1="0.00670101" y1="11.7729" x2="7.82575" y2="11.7729" gradientUnits="userSpaceOnUse">
<stop stop-color="#3EC6F2"/>
<stop offset="1" stop-color="#45AFE3"/>
</linearGradient>
<linearGradient id="paint2_linear_142_1072" x1="7.82547" y1="12.0371" x2="17.7472" y2="12.0371" gradientUnits="userSpaceOnUse">
<stop stop-color="#FAA51A"/>
<stop offset="0.387" stop-color="#FAB716"/>
<stop offset="0.741" stop-color="#FAC412"/>
<stop offset="1" stop-color="#FAC80F"/>
</linearGradient>
<linearGradient id="paint3_linear_142_1072" x1="0.0761328" y1="17.0857" x2="11.8454" y2="17.0857" gradientUnits="userSpaceOnUse">
<stop stop-color="#EC3B50"/>
<stop offset="1" stop-color="#E7515B"/>
</linearGradient>
</defs>
</svg>
