<svg id="katman_1" data-name="katman 1" xmlns="http://www.w3.org/2000/svg" viewBox="0 0 1617.4 1509.8"><defs><style>.cls-1,.cls-3{fill:#ed6a5b;}.cls-1{stroke:#ed6a5b;stroke-miterlimit:10;stroke-width:0.75px;}.cls-2{fill:#fff;}</style></defs><path class="cls-1" d="M829.3,1664.89v20c-237.76-9.68-427.53-205.49-427.53-445.62a450.89,450.89,0,0,1,2.38-46.43V1245h17.64C424.76,1471.45,604.47,1655.3,829.3,1664.89Z" transform="translate(-165.97 -176.02)"/><path class="cls-1" d="M829.3,1621.05v20.23c-211.8-9.57-380.95-182.86-383.91-396.32H465.6C468.54,1447.26,628.67,1611.51,829.3,1621.05Z" transform="translate(-165.97 -176.02)"/><path class="cls-1" d="M829.3,1574.64v23.22c-187.84-9.52-337.59-163.4-340.52-352.9h23.16C514.87,1421.66,654.26,1565.16,829.3,1574.64Z" transform="translate(-165.97 -176.02)"/><path class="cls-1" d="M829.3,1527.8v25.62c-162.83-9.5-292.17-143.67-293.95-308.46h23.38C561.63,1395.82,680.1,1518.39,829.3,1527.8Z" transform="translate(-165.97 -176.02)"/><path class="cls-1" d="M829.3,1482.57v23.77c-136.87-9.4-245.21-122.55-247-261.38H606C607.79,1370.69,705.54,1473.22,829.3,1482.57Z" transform="translate(-165.97 -176.02)"/><path class="cls-1" d="M829.3,1438.24v22C717.85,1451,630,1358.39,628.3,1245h21.91C652,1346.29,730,1429,829.3,1438.24Z" transform="translate(-165.97 -176.02)"/><polygon class="cls-1" points="256.24 237.21 256.24 617.2 236.22 617.2 236.22 254.3 256.24 237.21"/><rect class="cls-1" x="235.8" y="898" width="20.02" height="170.94"/><polygon class="cls-1" points="299.63 199.5 299.63 635.6 279.42 635.6 279.42 216.74 299.63 199.5"/><rect class="cls-1" x="279.42" y="898" width="20.21" height="170.94"/><polygon class="cls-1" points="346 159.92 346 635.6 322.81 635.6 322.81 179.71 346 159.92"/><rect class="cls-1" x="322.81" y="898" width="23.19" height="170.94"/><polygon class="cls-1" points="392.76 120.02 392.76 635.6 369.38 635.6 369.38 139.97 392.76 120.02"/><rect class="cls-1" x="369.38" y="898" width="23.38" height="170.94"/><polygon class="cls-2" points="440.06 286.24 440.06 318.15 416.34 336.93 416.34 286.24 440.06 286.24"/><polygon class="cls-1" points="440.07 79.64 440.07 635.6 416.35 635.6 416.35 99.89 440.07 79.64"/><rect class="cls-1" x="416.35" y="898" width="23.72" height="170.94"/><polygon class="cls-2" points="480.35 286.24 462.33 300.52 462.33 286.24 480.35 286.24"/><polygon class="cls-1" points="484.24 41.95 484.24 635.6 462.33 635.6 462.33 60.65 484.24 41.95"/><rect class="cls-1" x="462.33" y="898" width="21.91" height="170.94"/><polygon class="cls-2" points="745.05 283.13 745.05 297.62 725.02 283.49 725.02 283.13 745.05 283.13"/><polygon class="cls-1" points="745.06 19.1 745.06 635.98 725.03 635.98 725.03 0.85 745.06 19.1"/><rect class="cls-1" x="725.03" y="898" width="20.03" height="167.11"/><polygon class="cls-2" points="788.86 283.13 788.86 328.54 768.65 314.28 768.65 283.13 788.86 283.13"/><polygon class="cls-1" points="788.86 58.99 788.86 635.98 768.66 635.98 768.66 40.59 788.86 58.99"/><rect class="cls-1" x="768.66" y="898" width="20.2" height="167.11"/><polygon class="cls-2" points="835.23 283.13 835.23 361.27 812.04 344.9 812.04 283.13 835.23 283.13"/><polygon class="cls-1" points="835.23 101.23 835.23 635.98 812.04 635.98 812.04 80.11 835.23 101.23"/><rect class="cls-1" x="812.04" y="898" width="23.19" height="167.11"/><polygon class="cls-1" points="881.99 143.82 881.99 635.98 858.61 635.98 858.61 122.52 881.99 143.82"/><rect class="cls-1" x="858.61" y="898" width="23.38" height="167.11"/><polygon class="cls-1" points="929.3 186.91 929.3 635.98 905.58 635.98 905.58 165.31 929.3 186.91"/><rect class="cls-1" x="905.58" y="898" width="23.72" height="167.11"/><polygon class="cls-1" points="973.47 227.14 973.47 635.98 951.56 635.98 951.56 207.19 973.47 227.14"/><rect class="cls-1" x="951.56" y="898" width="21.91" height="167.11"/><polygon class="cls-1" points="1023.14 272.39 1023.14 635.98 999.67 635.98 999.67 251.01 1023.14 272.39"/><rect class="cls-1" x="999.67" y="898" width="23.47" height="167.26"/><polygon class="cls-3" points="1171.26 617.59 1171.26 638.6 155.54 638.6 167.12 617.59 1171.26 617.59"/><polygon class="cls-3" points="1159.22 660.49 1159.22 681.69 130.41 681.69 142.14 660.49 1159.22 660.49"/><rect class="cls-3" x="1159.11" y="660.49" width="11.95" height="21.2"/><polygon class="cls-3" points="1159.11 845.62 1159.11 868.6 26.34 868.6 39.13 845.62 1159.11 845.62"/><polygon class="cls-3" points="1171.21 893.81 1171.21 916.66 0 916.66 13.22 893.81 1171.21 893.81"/><rect class="cls-3" x="1159.11" y="845.62" width="12.31" height="22.98"/><polygon class="cls-3" points="1159.11 799.61 1159.11 824.43 50.93 824.43 64.75 799.61 1159.11 799.61"/><rect class="cls-3" x="1159.11" y="799.61" width="12.35" height="24.82"/><polygon class="cls-3" points="1159.11 752.66 1159.11 774.85 78.54 774.85 90.89 752.66 1159.11 752.66"/><rect class="cls-3" x="1159.11" y="752.66" width="12.29" height="22.19"/><polygon class="cls-3" points="1159.11 703.82 1159.11 728.08 104.58 728.08 118.09 703.82 1159.11 703.82"/><rect class="cls-3" x="1159.11" y="703.82" width="12.35" height="24.26"/><path class="cls-3" d="M922.87,1460.78H829.79v-23h82q3,6.75,6.25,13.38Q920.37,1456,922.87,1460.78Z" transform="translate(-165.97 -176.02)"/><path class="cls-3" d="M899,1415.62H840.05V1394.3h51.13Q894.8,1405.09,899,1415.62Z" transform="translate(-165.97 -176.02)"/><path class="cls-3" d="M950.41,1506.86H829.55v-24.78H934.6q4.27,7.22,8.81,14.25C945.7,1499.88,948,1503.39,950.41,1506.86Z" transform="translate(-165.97 -176.02)"/><path class="cls-3" d="M987.52,1554h-158v-26.62H965.26q6,7.76,12.31,15.23C980.82,1546.45,984.12,1550.24,987.52,1554Z" transform="translate(-165.97 -176.02)"/><path class="cls-3" d="M1033.76,1598.39h-204v-24.22h177q6.35,6.16,12.93,12.1Q1026.61,1592.47,1033.76,1598.39Z" transform="translate(-165.97 -176.02)"/><path class="cls-3" d="M1194.69,1685.41h-365v-21h309q2.31,1,4.64,2,6.14,2.68,12.37,5.21Q1174.77,1679.36,1194.69,1685.41Z" transform="translate(-165.97 -176.02)"/><rect class="cls-3" x="663.79" y="1444.56" width="14.24" height="21.3"/><path class="cls-3" d="M1095.37,1641.88H844v-21.35h218.35q6,4.26,12.19,8.34,5.55,3.69,11.23,7.2Q1090.55,1639,1095.37,1641.88Z" transform="translate(-165.97 -176.02)"/><path class="cls-1" d="M1783,1239.44c0,246.32-199.68,446-446,446-245.58,0-444.8-198.49-446-443.78h20c1.2,234.26,191.47,423.79,426,423.79,235.28,0,426-190.74,426-426s-190.74-426-426-426v-20C1583.32,793.44,1783,993.12,1783,1239.44Z" transform="translate(-165.97 -176.02)"/><path class="cls-1" d="M1739.42,1239.44c0,222.25-180.18,402.43-402.43,402.43-221.51,0-401.22-179-402.42-400.2h20.21c1.19,210.07,171.85,380,382.21,380,211.1,0,382.22-171.12,382.22-382.22S1548.09,857.21,1337,857.21V837C1559.24,837,1739.42,1017.18,1739.42,1239.44Z" transform="translate(-165.97 -176.02)"/><path class="cls-1" d="M1696.05,1239.44c0,198.3-160.76,359.06-359.06,359.06-197.56,0-357.84-159.55-359-356.83h23.16c1.2,184.48,151.12,333.65,335.87,333.65,185.5,0,335.89-150.37,335.89-335.88S1522.49,903.56,1337,903.56V880.38C1535.29,880.38,1696.05,1041.14,1696.05,1239.44Z" transform="translate(-165.97 -176.02)"/><path class="cls-1" d="M1649.44,1241.67c0,172.57-139.88,312.46-312.45,312.46s-312.45-139.89-312.45-312.46h23.34c1.2,158.65,130.18,286.89,289.11,286.89,159.68,0,289.12-129.45,289.12-289.12S1496.67,950.32,1337,950.32v-21.1C1509.56,929.22,1649.44,1069.11,1649.44,1241.67Z" transform="translate(-165.97 -176.02)"/><path class="cls-1" d="M1602.47,1241.67c0,146.63-118.86,265.49-265.48,265.49s-265.47-118.86-265.47-265.49h23.71c0,133.53,108.24,241.77,241.76,241.77s241.77-108.24,241.77-241.77S1470.52,999.91,1337,999.91V976.19C1483.61,976.19,1602.47,1095.05,1602.47,1241.67Z" transform="translate(-165.97 -176.02)"/><path class="cls-1" d="M1556.5,1241.67c0,121.23-98.28,219.52-219.51,219.52s-219.51-98.29-219.51-219.52h21.92c0,109.13,88.46,197.61,197.59,197.61s197.6-88.48,197.6-197.61-88.47-197.6-197.6-197.6v-21.91C1458.22,1022.16,1556.5,1120.44,1556.5,1241.67Z" transform="translate(-165.97 -176.02)"/><path class="cls-1" d="M1511.63,1243.32a173,173,0,0,1-346,0c0-.55,0-1.1,0-1.65h23.47a149.51,149.51,0,1,0,149.51-149.51h-1v-21.85h1A173,173,0,0,1,1511.63,1243.32Z" transform="translate(-165.97 -176.02)"/><path class="cls-1" d="M829.3,1394.79v20.32A160.86,160.86,0,0,1,672.39,1254.3h18.35A143.61,143.61,0,0,0,829.3,1394.79Z" transform="translate(-165.97 -176.02)"/><polygon class="cls-1" points="525.27 6.93 525.27 637.95 505.98 637.95 505.98 23.4 525.27 6.93"/><rect class="cls-3" x="505.98" y="898" width="19.29" height="180.03"/><rect class="cls-3" x="663.57" y="1218.28" width="10.51" height="21.32"/></svg>