<svg xmlns="http://www.w3.org/2000/svg" viewBox="0 0 2254.3 2177.5"><defs><style>.cls-1{fill:#ed6a5b;}.cls-2,.cls-3,.cls-4{fill:#fff;}.cls-2,.cls-3{stroke:#fff;stroke-miterlimit:10;}.cls-3{stroke-width:0.75px;}</style></defs><g id="katman_2" data-name="katman 2"><rect class="cls-1" width="2254.3" height="2177.5"/></g><g id="katman_1" data-name="katman 1"><path class="cls-2" d="M829.3,1664.89v20c-237.76-9.68-427.53-205.49-427.53-445.62a450.89,450.89,0,0,1,2.38-46.43V1245h17.64C424.76,1471.45,604.47,1655.3,829.3,1664.89Z" transform="translate(127.15 89.53)"/><path class="cls-2" d="M829.3,1621.05v20.23c-211.8-9.57-380.95-182.86-383.91-396.32H465.6C468.54,1447.26,628.67,1611.51,829.3,1621.05Z" transform="translate(127.15 89.53)"/><path class="cls-2" d="M829.3,1574.64v23.22c-187.84-9.52-337.59-163.4-340.52-352.9h23.16C514.87,1421.66,654.26,1565.16,829.3,1574.64Z" transform="translate(127.15 89.53)"/><path class="cls-2" d="M829.3,1527.8v25.62c-162.83-9.5-292.17-143.67-293.95-308.46h23.38C561.63,1395.82,680.1,1518.39,829.3,1527.8Z" transform="translate(127.15 89.53)"/><path class="cls-2" d="M829.3,1482.57v23.77c-136.87-9.4-245.21-122.55-247-261.38H606C607.79,1370.69,705.54,1473.22,829.3,1482.57Z" transform="translate(127.15 89.53)"/><path class="cls-2" d="M829.3,1438.24v22C717.85,1451,630,1358.39,628.3,1245h21.91C652,1346.29,730,1429,829.3,1438.24Z" transform="translate(127.15 89.53)"/><polygon class="cls-3" points="549.36 502.76 549.36 882.75 529.34 882.75 529.34 519.85 549.36 502.76"/><rect class="cls-2" x="528.92" y="1163.55" width="20.02" height="170.94"/><polygon class="cls-2" points="592.75 465.05 592.75 901.15 572.54 901.15 572.54 482.29 592.75 465.05"/><rect class="cls-2" x="572.54" y="1163.55" width="20.21" height="170.94"/><polygon class="cls-2" points="639.12 425.47 639.12 901.15 615.93 901.15 615.93 445.26 639.12 425.47"/><rect class="cls-2" x="615.93" y="1163.55" width="23.19" height="170.94"/><polygon class="cls-2" points="685.88 385.57 685.88 901.15 662.5 901.15 662.5 405.52 685.88 385.57"/><rect class="cls-2" x="662.5" y="1163.55" width="23.38" height="170.94"/><polygon class="cls-4" points="733.19 551.79 733.19 583.7 709.47 602.48 709.47 551.79 733.19 551.79"/><polygon class="cls-2" points="733.19 345.19 733.19 901.15 709.47 901.15 709.47 365.44 733.19 345.19"/><rect class="cls-2" x="709.47" y="1163.55" width="23.72" height="170.94"/><polygon class="cls-4" points="773.48 551.79 755.45 566.06 755.45 551.79 773.48 551.79"/><polygon class="cls-2" points="777.36 307.5 777.36 901.15 755.45 901.15 755.45 326.2 777.36 307.5"/><rect class="cls-2" x="755.45" y="1163.55" width="21.91" height="170.94"/><polygon class="cls-4" points="1038.18 548.68 1038.18 563.16 1018.15 549.03 1018.15 548.68 1038.18 548.68"/><polygon class="cls-2" points="1038.18 284.65 1038.18 901.53 1018.15 901.53 1018.15 266.4 1038.18 284.65"/><rect class="cls-2" x="1018.15" y="1163.55" width="20.03" height="167.11"/><polygon class="cls-4" points="1081.98 548.68 1081.98 594.08 1061.78 579.83 1061.78 548.68 1081.98 548.68"/><polygon class="cls-2" points="1081.98 324.54 1081.98 901.53 1061.78 901.53 1061.78 306.14 1081.98 324.54"/><rect class="cls-2" x="1061.78" y="1163.55" width="20.2" height="167.11"/><polygon class="cls-4" points="1128.35 548.68 1128.35 626.81 1105.16 610.45 1105.16 548.68 1128.35 548.68"/><polygon class="cls-2" points="1128.35 366.78 1128.35 901.53 1105.16 901.53 1105.16 345.66 1128.35 366.78"/><rect class="cls-2" x="1105.16" y="1163.55" width="23.19" height="167.11"/><polygon class="cls-2" points="1175.11 409.37 1175.11 901.53 1151.73 901.53 1151.73 388.07 1175.11 409.37"/><rect class="cls-2" x="1151.73" y="1163.55" width="23.38" height="167.11"/><polygon class="cls-2" points="1222.42 452.46 1222.42 901.53 1198.7 901.53 1198.7 430.86 1222.42 452.46"/><rect class="cls-2" x="1198.7" y="1163.55" width="23.72" height="167.11"/><polygon class="cls-2" points="1266.59 492.69 1266.59 901.53 1244.68 901.53 1244.68 472.74 1266.59 492.69"/><rect class="cls-2" x="1244.68" y="1163.55" width="21.91" height="167.11"/><polygon class="cls-2" points="1316.26 537.94 1316.26 901.53 1292.79 901.53 1292.79 516.56 1316.26 537.94"/><rect class="cls-2" x="1292.79" y="1163.55" width="23.47" height="167.26"/><polygon class="cls-4" points="1464.38 883.13 1464.38 904.14 448.67 904.14 460.24 883.13 1464.38 883.13"/><polygon class="cls-4" points="1452.34 926.04 1452.34 947.24 423.53 947.24 435.26 926.04 1452.34 926.04"/><rect class="cls-4" x="1452.23" y="926.04" width="11.95" height="21.2"/><polygon class="cls-4" points="1452.23 1111.17 1452.23 1134.15 319.46 1134.15 332.25 1111.17 1452.23 1111.17"/><polygon class="cls-4" points="1464.33 1159.36 1464.33 1182.21 293.12 1182.21 306.35 1159.36 1464.33 1159.36"/><rect class="cls-4" x="1452.23" y="1111.17" width="12.31" height="22.98"/><polygon class="cls-4" points="1452.23 1065.16 1452.23 1089.98 344.05 1089.98 357.87 1065.16 1452.23 1065.16"/><rect class="cls-4" x="1452.23" y="1065.16" width="12.35" height="24.82"/><polygon class="cls-4" points="1452.23 1018.21 1452.23 1040.4 371.66 1040.4 384.01 1018.21 1452.23 1018.21"/><rect class="cls-4" x="1452.23" y="1018.21" width="12.29" height="22.19"/><polygon class="cls-4" points="1452.23 969.37 1452.23 993.63 397.7 993.63 411.21 969.37 1452.23 969.37"/><rect class="cls-4" x="1452.23" y="969.37" width="12.35" height="24.26"/><path class="cls-4" d="M922.87,1460.78H829.79v-23h82q3,6.75,6.25,13.38Q920.37,1456,922.87,1460.78Z" transform="translate(127.15 89.53)"/><path class="cls-4" d="M899,1415.62H840.05V1394.3h51.13Q894.8,1405.09,899,1415.62Z" transform="translate(127.15 89.53)"/><path class="cls-4" d="M950.41,1506.86H829.55v-24.78H934.6q4.27,7.22,8.81,14.25C945.7,1499.88,948,1503.39,950.41,1506.86Z" transform="translate(127.15 89.53)"/><path class="cls-4" d="M987.52,1554h-158v-26.62H965.26q6,7.76,12.31,15.23C980.82,1546.45,984.12,1550.24,987.52,1554Z" transform="translate(127.15 89.53)"/><path class="cls-4" d="M1033.76,1598.39h-204v-24.22h177q6.35,6.16,12.93,12.1Q1026.61,1592.47,1033.76,1598.39Z" transform="translate(127.15 89.53)"/><path class="cls-4" d="M1194.69,1685.41h-365v-21h309q2.31,1,4.64,2,6.14,2.68,12.37,5.21Q1174.77,1679.36,1194.69,1685.41Z" transform="translate(127.15 89.53)"/><rect class="cls-4" x="956.92" y="1710.11" width="14.24" height="21.3"/><path class="cls-4" d="M1095.37,1641.88H844v-21.35h218.35q6,4.26,12.19,8.34,5.55,3.69,11.23,7.2Q1090.55,1639,1095.37,1641.88Z" transform="translate(127.15 89.53)"/><path class="cls-2" d="M1783,1239.44c0,246.32-199.68,446-446,446-245.58,0-444.8-198.49-446-443.78h20c1.2,234.26,191.47,423.79,426,423.79,235.28,0,426-190.74,426-426s-190.74-426-426-426v-20C1583.32,793.44,1783,993.12,1783,1239.44Z" transform="translate(127.15 89.53)"/><path class="cls-2" d="M1739.42,1239.44c0,222.25-180.18,402.43-402.43,402.43-221.51,0-401.22-179-402.42-400.2h20.21c1.19,210.07,171.85,380,382.21,380,211.1,0,382.22-171.12,382.22-382.22S1548.09,857.21,1337,857.21V837C1559.24,837,1739.42,1017.18,1739.42,1239.44Z" transform="translate(127.15 89.53)"/><path class="cls-2" d="M1696.05,1239.44c0,198.3-160.76,359.06-359.06,359.06-197.56,0-357.84-159.55-359-356.83h23.16c1.2,184.48,151.12,333.65,335.87,333.65,185.5,0,335.89-150.37,335.89-335.88S1522.49,903.56,1337,903.56V880.38C1535.29,880.38,1696.05,1041.14,1696.05,1239.44Z" transform="translate(127.15 89.53)"/><path class="cls-2" d="M1649.44,1241.67c0,172.57-139.88,312.46-312.45,312.46s-312.45-139.89-312.45-312.46h23.34c1.2,158.65,130.18,286.89,289.11,286.89,159.68,0,289.12-129.45,289.12-289.12S1496.67,950.32,1337,950.32v-21.1C1509.56,929.22,1649.44,1069.11,1649.44,1241.67Z" transform="translate(127.15 89.53)"/><path class="cls-2" d="M1602.47,1241.67c0,146.63-118.86,265.49-265.48,265.49s-265.47-118.86-265.47-265.49h23.71c0,133.53,108.24,241.77,241.76,241.77s241.77-108.24,241.77-241.77S1470.52,999.91,1337,999.91V976.19C1483.61,976.19,1602.47,1095.05,1602.47,1241.67Z" transform="translate(127.15 89.53)"/><path class="cls-2" d="M1556.5,1241.67c0,121.23-98.28,219.52-219.51,219.52s-219.51-98.29-219.51-219.52h21.92c0,109.13,88.46,197.61,197.59,197.61s197.6-88.48,197.6-197.61-88.47-197.6-197.6-197.6v-21.91C1458.22,1022.16,1556.5,1120.44,1556.5,1241.67Z" transform="translate(127.15 89.53)"/><path class="cls-2" d="M1511.63,1243.32a173,173,0,0,1-346,0c0-.55,0-1.1,0-1.65h23.47a149.51,149.51,0,1,0,149.51-149.51h-1v-21.85h1A173,173,0,0,1,1511.63,1243.32Z" transform="translate(127.15 89.53)"/><path class="cls-2" d="M829.3,1394.79v20.32A160.86,160.86,0,0,1,672.39,1254.3h18.35A143.61,143.61,0,0,0,829.3,1394.79Z" transform="translate(127.15 89.53)"/><polygon class="cls-2" points="818.39 272.48 818.39 903.5 799.1 903.5 799.1 288.95 818.39 272.48"/><rect class="cls-4" x="799.1" y="1163.55" width="19.29" height="180.03"/><rect class="cls-4" x="956.7" y="1483.83" width="10.51" height="21.32"/></g></svg>